G04 #@! TF.GenerationSoftware,KiCad,Pcbnew,(5.0.0)*
G04 #@! TF.CreationDate,2018-10-30T20:30:18+00:00*
G04 #@! TF.ProjectId,Nano SSI interface,4E616E6F2053534920696E7465726661,rev?*
G04 #@! TF.SameCoordinates,Original*
G04 #@! TF.FileFunction,Soldermask,Bot*
G04 #@! TF.FilePolarity,Negative*
%FSLAX46Y46*%
G04 Gerber Fmt 4.6, Leading zero omitted, Abs format (unit mm)*
G04 Created by KiCad (PCBNEW (5.0.0)) date 10/30/18 20:30:18*
%MOMM*%
%LPD*%
G01*
G04 APERTURE LIST*
%ADD10C,3.100000*%
%ADD11R,3.200000X3.200000*%
%ADD12O,3.200000X3.200000*%
%ADD13C,2.000000*%
%ADD14R,2.000000X2.000000*%
%ADD15R,3.900000X3.900000*%
%ADD16C,0.100000*%
%ADD17C,3.400000*%
%ADD18C,3.900000*%
%ADD19C,4.400000*%
%ADD20R,2.140000X2.600000*%
%ADD21O,2.140000X2.600000*%
%ADD22O,2.000000X2.000000*%
%ADD23O,2.800000X2.000000*%
%ADD24R,2.800000X2.000000*%
%ADD25O,3.900000X3.900000*%
%ADD26R,2.400000X2.305000*%
%ADD27O,2.400000X2.305000*%
%ADD28O,2.100000X2.100000*%
%ADD29R,2.100000X2.100000*%
G04 APERTURE END LIST*
D10*
G04 #@! TO.C,REF\002A\002A*
X204000000Y-115000000D03*
G04 #@! TD*
G04 #@! TO.C,REF\002A\002A*
X204000000Y-23495000D03*
G04 #@! TD*
G04 #@! TO.C,REF\002A\002A*
X164000000Y-115000000D03*
G04 #@! TD*
G04 #@! TO.C,REF\002A\002A*
X164000000Y-23495000D03*
G04 #@! TD*
D11*
G04 #@! TO.C,D1*
X194310000Y-33655000D03*
D12*
X204470000Y-33655000D03*
G04 #@! TD*
D13*
G04 #@! TO.C,C1*
X190500000Y-40600000D03*
D14*
X190500000Y-38100000D03*
G04 #@! TD*
G04 #@! TO.C,C2*
X193675000Y-27265000D03*
D13*
X193675000Y-24765000D03*
G04 #@! TD*
D14*
G04 #@! TO.C,C3*
X184785000Y-97155000D03*
D13*
X184785000Y-99655000D03*
G04 #@! TD*
G04 #@! TO.C,C4*
X184785000Y-106005000D03*
D14*
X184785000Y-103505000D03*
G04 #@! TD*
D13*
G04 #@! TO.C,C5*
X184785000Y-90210000D03*
D14*
X184785000Y-92710000D03*
G04 #@! TD*
G04 #@! TO.C,C6*
X184785000Y-113030000D03*
D13*
X184785000Y-110530000D03*
G04 #@! TD*
G04 #@! TO.C,C7*
X199390000Y-44450000D03*
X196890000Y-44450000D03*
G04 #@! TD*
G04 #@! TO.C,C8*
X196890000Y-63500000D03*
X199390000Y-63500000D03*
G04 #@! TD*
D15*
G04 #@! TO.C,J1*
X209900000Y-31750000D03*
D16*
G36*
X216833315Y-29804093D02*
X216915827Y-29816333D01*
X216996742Y-29836601D01*
X217075281Y-29864702D01*
X217150687Y-29900367D01*
X217222235Y-29943251D01*
X217289234Y-29992941D01*
X217351041Y-30048959D01*
X217407059Y-30110766D01*
X217456749Y-30177765D01*
X217499633Y-30249313D01*
X217535298Y-30324719D01*
X217563399Y-30403258D01*
X217583667Y-30484173D01*
X217595907Y-30566685D01*
X217600000Y-30650000D01*
X217600000Y-32850000D01*
X217595907Y-32933315D01*
X217583667Y-33015827D01*
X217563399Y-33096742D01*
X217535298Y-33175281D01*
X217499633Y-33250687D01*
X217456749Y-33322235D01*
X217407059Y-33389234D01*
X217351041Y-33451041D01*
X217289234Y-33507059D01*
X217222235Y-33556749D01*
X217150687Y-33599633D01*
X217075281Y-33635298D01*
X216996742Y-33663399D01*
X216915827Y-33683667D01*
X216833315Y-33695907D01*
X216750000Y-33700000D01*
X215050000Y-33700000D01*
X214966685Y-33695907D01*
X214884173Y-33683667D01*
X214803258Y-33663399D01*
X214724719Y-33635298D01*
X214649313Y-33599633D01*
X214577765Y-33556749D01*
X214510766Y-33507059D01*
X214448959Y-33451041D01*
X214392941Y-33389234D01*
X214343251Y-33322235D01*
X214300367Y-33250687D01*
X214264702Y-33175281D01*
X214236601Y-33096742D01*
X214216333Y-33015827D01*
X214204093Y-32933315D01*
X214200000Y-32850000D01*
X214200000Y-30650000D01*
X214204093Y-30566685D01*
X214216333Y-30484173D01*
X214236601Y-30403258D01*
X214264702Y-30324719D01*
X214300367Y-30249313D01*
X214343251Y-30177765D01*
X214392941Y-30110766D01*
X214448959Y-30048959D01*
X214510766Y-29992941D01*
X214577765Y-29943251D01*
X214649313Y-29900367D01*
X214724719Y-29864702D01*
X214803258Y-29836601D01*
X214884173Y-29816333D01*
X214966685Y-29804093D01*
X215050000Y-29800000D01*
X216750000Y-29800000D01*
X216833315Y-29804093D01*
X216833315Y-29804093D01*
G37*
D17*
X215900000Y-31750000D03*
D16*
G36*
X213970567Y-25104695D02*
X214065213Y-25118734D01*
X214158028Y-25141983D01*
X214248116Y-25174217D01*
X214334612Y-25215127D01*
X214416681Y-25264317D01*
X214493533Y-25321315D01*
X214564429Y-25385571D01*
X214628685Y-25456467D01*
X214685683Y-25533319D01*
X214734873Y-25615388D01*
X214775783Y-25701884D01*
X214808017Y-25791972D01*
X214831266Y-25884787D01*
X214845305Y-25979433D01*
X214850000Y-26075000D01*
X214850000Y-28025000D01*
X214845305Y-28120567D01*
X214831266Y-28215213D01*
X214808017Y-28308028D01*
X214775783Y-28398116D01*
X214734873Y-28484612D01*
X214685683Y-28566681D01*
X214628685Y-28643533D01*
X214564429Y-28714429D01*
X214493533Y-28778685D01*
X214416681Y-28835683D01*
X214334612Y-28884873D01*
X214248116Y-28925783D01*
X214158028Y-28958017D01*
X214065213Y-28981266D01*
X213970567Y-28995305D01*
X213875000Y-29000000D01*
X211925000Y-29000000D01*
X211829433Y-28995305D01*
X211734787Y-28981266D01*
X211641972Y-28958017D01*
X211551884Y-28925783D01*
X211465388Y-28884873D01*
X211383319Y-28835683D01*
X211306467Y-28778685D01*
X211235571Y-28714429D01*
X211171315Y-28643533D01*
X211114317Y-28566681D01*
X211065127Y-28484612D01*
X211024217Y-28398116D01*
X210991983Y-28308028D01*
X210968734Y-28215213D01*
X210954695Y-28120567D01*
X210950000Y-28025000D01*
X210950000Y-26075000D01*
X210954695Y-25979433D01*
X210968734Y-25884787D01*
X210991983Y-25791972D01*
X211024217Y-25701884D01*
X211065127Y-25615388D01*
X211114317Y-25533319D01*
X211171315Y-25456467D01*
X211235571Y-25385571D01*
X211306467Y-25321315D01*
X211383319Y-25264317D01*
X211465388Y-25215127D01*
X211551884Y-25174217D01*
X211641972Y-25141983D01*
X211734787Y-25118734D01*
X211829433Y-25104695D01*
X211925000Y-25100000D01*
X213875000Y-25100000D01*
X213970567Y-25104695D01*
X213970567Y-25104695D01*
G37*
D18*
X212900000Y-27050000D03*
G04 #@! TD*
D14*
G04 #@! TO.C,J2*
X211455000Y-93980000D03*
D13*
X211455000Y-96750000D03*
X211455000Y-99520000D03*
X211455000Y-102290000D03*
X211455000Y-105060000D03*
X214295000Y-95365000D03*
X214295000Y-98135000D03*
X214295000Y-100905000D03*
X214295000Y-103675000D03*
D19*
X211755000Y-112020000D03*
X211755000Y-87020000D03*
G04 #@! TD*
D20*
G04 #@! TO.C,J5*
X173355000Y-98425000D03*
D21*
X170815000Y-98425000D03*
X168275000Y-98425000D03*
X165735000Y-98425000D03*
G04 #@! TD*
D14*
G04 #@! TO.C,U1*
X182245000Y-83820000D03*
D22*
X167005000Y-50800000D03*
X182245000Y-81280000D03*
X167005000Y-53340000D03*
X182245000Y-78740000D03*
X167005000Y-55880000D03*
X182245000Y-76200000D03*
X167005000Y-58420000D03*
X182245000Y-73660000D03*
X167005000Y-60960000D03*
X182245000Y-71120000D03*
X167005000Y-63500000D03*
X182245000Y-68580000D03*
X167005000Y-66040000D03*
X182245000Y-66040000D03*
X167005000Y-68580000D03*
X182245000Y-63500000D03*
X167005000Y-71120000D03*
X182245000Y-60960000D03*
X167005000Y-73660000D03*
X182245000Y-58420000D03*
X167005000Y-76200000D03*
X182245000Y-55880000D03*
X167005000Y-78740000D03*
X182245000Y-53340000D03*
X167005000Y-81280000D03*
X182245000Y-50800000D03*
X167005000Y-83820000D03*
X182245000Y-48260000D03*
X167005000Y-48260000D03*
G04 #@! TD*
D23*
G04 #@! TO.C,U3*
X203200000Y-48895000D03*
X195580000Y-56515000D03*
X203200000Y-51435000D03*
X195580000Y-53975000D03*
X203200000Y-53975000D03*
X195580000Y-51435000D03*
X203200000Y-56515000D03*
D24*
X195580000Y-48895000D03*
G04 #@! TD*
G04 #@! TO.C,U4*
X195580000Y-67945000D03*
D23*
X203200000Y-75565000D03*
X195580000Y-70485000D03*
X203200000Y-73025000D03*
X195580000Y-73025000D03*
X203200000Y-70485000D03*
X195580000Y-75565000D03*
X203200000Y-67945000D03*
G04 #@! TD*
D24*
G04 #@! TO.C,U5*
X193675000Y-92075000D03*
D23*
X201295000Y-109855000D03*
X193675000Y-94615000D03*
X201295000Y-107315000D03*
X193675000Y-97155000D03*
X201295000Y-104775000D03*
X193675000Y-99695000D03*
X201295000Y-102235000D03*
X193675000Y-102235000D03*
X201295000Y-99695000D03*
X193675000Y-104775000D03*
X201295000Y-97155000D03*
X193675000Y-107315000D03*
X201295000Y-94615000D03*
X193675000Y-109855000D03*
X201295000Y-92075000D03*
G04 #@! TD*
D14*
G04 #@! TO.C,J3*
X211455000Y-50165000D03*
D13*
X211455000Y-52935000D03*
X211455000Y-55705000D03*
X211455000Y-58475000D03*
X211455000Y-61245000D03*
X211455000Y-64015000D03*
X211455000Y-66785000D03*
X211455000Y-69555000D03*
X214295000Y-51550000D03*
X214295000Y-54320000D03*
X214295000Y-57090000D03*
X214295000Y-59860000D03*
X214295000Y-62630000D03*
X214295000Y-65400000D03*
X214295000Y-68170000D03*
D19*
X211755000Y-76510000D03*
X211755000Y-43210000D03*
G04 #@! TD*
D20*
G04 #@! TO.C,J4*
X173355000Y-107315000D03*
D21*
X170815000Y-107315000D03*
X168275000Y-107315000D03*
X165735000Y-107315000D03*
G04 #@! TD*
D25*
G04 #@! TO.C,U2*
X166220000Y-31750000D03*
D26*
X182880000Y-34290000D03*
D27*
X182880000Y-31750000D03*
X182880000Y-29210000D03*
G04 #@! TD*
D28*
G04 #@! TO.C,J6*
X187960000Y-48260000D03*
X187960000Y-50800000D03*
X187960000Y-53340000D03*
X187960000Y-55880000D03*
X187960000Y-58420000D03*
X187960000Y-60960000D03*
X187960000Y-63500000D03*
D29*
X187960000Y-66040000D03*
G04 #@! TD*
G04 #@! TO.C,J7*
X162560000Y-66040000D03*
D28*
X162560000Y-63500000D03*
X162560000Y-60960000D03*
X162560000Y-58420000D03*
X162560000Y-55880000D03*
X162560000Y-53340000D03*
X162560000Y-50800000D03*
X162560000Y-48260000D03*
G04 #@! TD*
M02*
