M48
INCH,TZ
T1C0.0157
T2C0.0315
T3C0.0394
T4C0.0433
T5C0.0472
T6C0.0551
T7C0.1260
%
G90
G05
T1
X64750Y-11000
X64750Y-14000
X65500Y-11000
X65500Y-14000
X66250Y-11000
X66250Y-14000
X67000Y-11000
X67000Y-12000
X67000Y-13000
X67000Y-14000
X67750Y-11000
X67750Y-12000
X67750Y-13000
X67750Y-14000
X68500Y-11000
X68500Y-12000
X68500Y-13000
X68500Y-14000
X69750Y-25000
T2
X75000Y-15000
X75000Y-15984
X72750Y-40750
X72750Y-41734
X76250Y-36250
X76250Y-37250
X76250Y-38250
X76250Y-39250
X76250Y-40250
X76250Y-41250
X76250Y-42250
X76250Y-43250
X79250Y-36250
X79250Y-37250
X79250Y-38250
X79250Y-39250
X79250Y-40250
X79250Y-41250
X79250Y-42250
X79250Y-43250
X77000Y-19250
X77000Y-20250
X77000Y-21250
X77000Y-22250
X80000Y-19250
X80000Y-20250
X80000Y-21250
X80000Y-22250
X76250Y-9750
X76250Y-10734
X77000Y-26750
X77000Y-27750
X77000Y-28750
X77000Y-29750
X80000Y-26750
X80000Y-27750
X80000Y-28750
X80000Y-29750
X65750Y-19000
X65750Y-20000
X65750Y-21000
X65750Y-22000
X65750Y-23000
X65750Y-24000
X65750Y-25000
X65750Y-26000
X65750Y-27000
X65750Y-28000
X65750Y-29000
X65750Y-30000
X65750Y-31000
X65750Y-32000
X65750Y-33000
X71750Y-19000
X71750Y-20000
X71750Y-21000
X71750Y-22000
X71750Y-23000
X71750Y-24000
X71750Y-25000
X71750Y-26000
X71750Y-27000
X71750Y-28000
X71750Y-29000
X71750Y-30000
X71750Y-31000
X71750Y-32000
X71750Y-33000
X77516Y-25000
X78500Y-25000
X77516Y-17500
X78500Y-17500
X72750Y-43516
X72750Y-44500
X72750Y-35516
X72750Y-36500
X72750Y-38250
X72750Y-39234
T3
X83250Y-37000
X83250Y-38091
X83250Y-39181
X83250Y-40272
X83250Y-41362
X84368Y-37545
X84368Y-38636
X84368Y-39726
X84368Y-40817
X64000Y-19000
X64000Y-20000
X64000Y-21000
X64000Y-22000
X64000Y-23000
X64000Y-24000
X64000Y-25000
X64000Y-26000
X83250Y-19750
X83250Y-20841
X83250Y-21931
X83250Y-23022
X83250Y-24112
X83250Y-25203
X83250Y-26293
X83250Y-27384
X84368Y-20295
X84368Y-21386
X84368Y-22476
X84368Y-23567
X84368Y-24657
X84368Y-25748
X84368Y-26839
X74000Y-19000
X74000Y-20000
X74000Y-21000
X74000Y-22000
X74000Y-23000
X74000Y-24000
X74000Y-25000
X74000Y-26000
T4
X72000Y-11500
X72000Y-12500
X72000Y-13500
T5
X65250Y-42250
X66250Y-42250
X67250Y-42250
X68250Y-42250
X65250Y-38750
X66250Y-38750
X67250Y-38750
X68250Y-38750
T6
X76500Y-13250
X80500Y-13250
T7
X83368Y-34260
X83368Y-44102
X83368Y-17012
X83368Y-30122
T3
X82638Y-12894G85X82638Y-12106
G05
X84213Y-10650G85X83425Y-10650
G05
X85000Y-12894G85X85000Y-12106
G05
T0
M30
