G04 #@! TF.GenerationSoftware,KiCad,Pcbnew,(5.0.0)*
G04 #@! TF.CreationDate,2018-10-30T20:30:18+00:00*
G04 #@! TF.ProjectId,Nano SSI interface,4E616E6F2053534920696E7465726661,rev?*
G04 #@! TF.SameCoordinates,Original*
G04 #@! TF.FileFunction,Legend,Top*
G04 #@! TF.FilePolarity,Positive*
%FSLAX46Y46*%
G04 Gerber Fmt 4.6, Leading zero omitted, Abs format (unit mm)*
G04 Created by KiCad (PCBNEW (5.0.0)) date 10/30/18 20:30:18*
%MOMM*%
%LPD*%
G01*
G04 APERTURE LIST*
%ADD10C,0.300000*%
%ADD11C,0.120000*%
%ADD12C,0.150000*%
G04 APERTURE END LIST*
D10*
X165080714Y-102048571D02*
X165580714Y-103548571D01*
X166080714Y-102048571D01*
X168580714Y-103405714D02*
X168509285Y-103477142D01*
X168295000Y-103548571D01*
X168152142Y-103548571D01*
X167937857Y-103477142D01*
X167795000Y-103334285D01*
X167723571Y-103191428D01*
X167652142Y-102905714D01*
X167652142Y-102691428D01*
X167723571Y-102405714D01*
X167795000Y-102262857D01*
X167937857Y-102120000D01*
X168152142Y-102048571D01*
X168295000Y-102048571D01*
X168509285Y-102120000D01*
X168580714Y-102191428D01*
X170366428Y-103548571D02*
X170366428Y-102048571D01*
X170723571Y-102048571D01*
X170937857Y-102120000D01*
X171080714Y-102262857D01*
X171152142Y-102405714D01*
X171223571Y-102691428D01*
X171223571Y-102905714D01*
X171152142Y-103191428D01*
X171080714Y-103334285D01*
X170937857Y-103477142D01*
X170723571Y-103548571D01*
X170366428Y-103548571D01*
X173795000Y-102120000D02*
X173652142Y-102048571D01*
X173437857Y-102048571D01*
X173223571Y-102120000D01*
X173080714Y-102262857D01*
X173009285Y-102405714D01*
X172937857Y-102691428D01*
X172937857Y-102905714D01*
X173009285Y-103191428D01*
X173080714Y-103334285D01*
X173223571Y-103477142D01*
X173437857Y-103548571D01*
X173580714Y-103548571D01*
X173795000Y-103477142D01*
X173866428Y-103405714D01*
X173866428Y-102905714D01*
X173580714Y-102905714D01*
X164652142Y-94023571D02*
X164652142Y-92523571D01*
X165295000Y-92666428D02*
X165366428Y-92595000D01*
X165509285Y-92523571D01*
X165866428Y-92523571D01*
X166009285Y-92595000D01*
X166080714Y-92666428D01*
X166152142Y-92809285D01*
X166152142Y-92952142D01*
X166080714Y-93166428D01*
X165223571Y-94023571D01*
X166152142Y-94023571D01*
X167652142Y-93880714D02*
X167580714Y-93952142D01*
X167366428Y-94023571D01*
X167223571Y-94023571D01*
X167009285Y-93952142D01*
X166866428Y-93809285D01*
X166795000Y-93666428D01*
X166723571Y-93380714D01*
X166723571Y-93166428D01*
X166795000Y-92880714D01*
X166866428Y-92737857D01*
X167009285Y-92595000D01*
X167223571Y-92523571D01*
X167366428Y-92523571D01*
X167580714Y-92595000D01*
X167652142Y-92666428D01*
X169437857Y-93023571D02*
X169437857Y-94523571D01*
X169437857Y-93095000D02*
X169580714Y-93023571D01*
X169866428Y-93023571D01*
X170009285Y-93095000D01*
X170080714Y-93166428D01*
X170152142Y-93309285D01*
X170152142Y-93737857D01*
X170080714Y-93880714D01*
X170009285Y-93952142D01*
X169866428Y-94023571D01*
X169580714Y-94023571D01*
X169437857Y-93952142D01*
X171009285Y-94023571D02*
X170866428Y-93952142D01*
X170795000Y-93880714D01*
X170723571Y-93737857D01*
X170723571Y-93309285D01*
X170795000Y-93166428D01*
X170866428Y-93095000D01*
X171009285Y-93023571D01*
X171223571Y-93023571D01*
X171366428Y-93095000D01*
X171437857Y-93166428D01*
X171509285Y-93309285D01*
X171509285Y-93737857D01*
X171437857Y-93880714D01*
X171366428Y-93952142D01*
X171223571Y-94023571D01*
X171009285Y-94023571D01*
X172152142Y-94023571D02*
X172152142Y-93023571D01*
X172152142Y-93309285D02*
X172223571Y-93166428D01*
X172295000Y-93095000D01*
X172437857Y-93023571D01*
X172580714Y-93023571D01*
X172866428Y-93023571D02*
X173437857Y-93023571D01*
X173080714Y-92523571D02*
X173080714Y-93809285D01*
X173152142Y-93952142D01*
X173295000Y-94023571D01*
X173437857Y-94023571D01*
X173866428Y-93952142D02*
X174009285Y-94023571D01*
X174295000Y-94023571D01*
X174437857Y-93952142D01*
X174509285Y-93809285D01*
X174509285Y-93737857D01*
X174437857Y-93595000D01*
X174295000Y-93523571D01*
X174080714Y-93523571D01*
X173937857Y-93452142D01*
X173866428Y-93309285D01*
X173866428Y-93237857D01*
X173937857Y-93095000D01*
X174080714Y-93023571D01*
X174295000Y-93023571D01*
X174437857Y-93095000D01*
X206648857Y-64912285D02*
X206648857Y-64412285D01*
X207434571Y-64198000D02*
X207434571Y-64912285D01*
X205934571Y-64912285D01*
X205934571Y-64198000D01*
X206434571Y-63555142D02*
X207434571Y-63555142D01*
X206577428Y-63555142D02*
X206506000Y-63483714D01*
X206434571Y-63340857D01*
X206434571Y-63126571D01*
X206506000Y-62983714D01*
X206648857Y-62912285D01*
X207434571Y-62912285D01*
X207363142Y-61555142D02*
X207434571Y-61698000D01*
X207434571Y-61983714D01*
X207363142Y-62126571D01*
X207291714Y-62198000D01*
X207148857Y-62269428D01*
X206720285Y-62269428D01*
X206577428Y-62198000D01*
X206506000Y-62126571D01*
X206434571Y-61983714D01*
X206434571Y-61698000D01*
X206506000Y-61555142D01*
X207434571Y-60698000D02*
X207363142Y-60840857D01*
X207291714Y-60912285D01*
X207148857Y-60983714D01*
X206720285Y-60983714D01*
X206577428Y-60912285D01*
X206506000Y-60840857D01*
X206434571Y-60698000D01*
X206434571Y-60483714D01*
X206506000Y-60340857D01*
X206577428Y-60269428D01*
X206720285Y-60198000D01*
X207148857Y-60198000D01*
X207291714Y-60269428D01*
X207363142Y-60340857D01*
X207434571Y-60483714D01*
X207434571Y-60698000D01*
X207434571Y-58912285D02*
X205934571Y-58912285D01*
X207363142Y-58912285D02*
X207434571Y-59055142D01*
X207434571Y-59340857D01*
X207363142Y-59483714D01*
X207291714Y-59555142D01*
X207148857Y-59626571D01*
X206720285Y-59626571D01*
X206577428Y-59555142D01*
X206506000Y-59483714D01*
X206434571Y-59340857D01*
X206434571Y-59055142D01*
X206506000Y-58912285D01*
X207363142Y-57626571D02*
X207434571Y-57769428D01*
X207434571Y-58055142D01*
X207363142Y-58198000D01*
X207220285Y-58269428D01*
X206648857Y-58269428D01*
X206506000Y-58198000D01*
X206434571Y-58055142D01*
X206434571Y-57769428D01*
X206506000Y-57626571D01*
X206648857Y-57555142D01*
X206791714Y-57555142D01*
X206934571Y-58269428D01*
X207434571Y-56912285D02*
X206434571Y-56912285D01*
X206720285Y-56912285D02*
X206577428Y-56840857D01*
X206506000Y-56769428D01*
X206434571Y-56626571D01*
X206434571Y-56483714D01*
X207363142Y-56055142D02*
X207434571Y-55912285D01*
X207434571Y-55626571D01*
X207363142Y-55483714D01*
X207220285Y-55412285D01*
X207148857Y-55412285D01*
X207006000Y-55483714D01*
X206934571Y-55626571D01*
X206934571Y-55840857D01*
X206863142Y-55983714D01*
X206720285Y-56055142D01*
X206648857Y-56055142D01*
X206506000Y-55983714D01*
X206434571Y-55840857D01*
X206434571Y-55626571D01*
X206506000Y-55483714D01*
X174875000Y-72690714D02*
X174875000Y-71976428D01*
X175303571Y-72833571D02*
X173803571Y-72333571D01*
X175303571Y-71833571D01*
X175303571Y-71333571D02*
X174303571Y-71333571D01*
X174589285Y-71333571D02*
X174446428Y-71262142D01*
X174375000Y-71190714D01*
X174303571Y-71047857D01*
X174303571Y-70905000D01*
X175303571Y-69762142D02*
X173803571Y-69762142D01*
X175232142Y-69762142D02*
X175303571Y-69905000D01*
X175303571Y-70190714D01*
X175232142Y-70333571D01*
X175160714Y-70405000D01*
X175017857Y-70476428D01*
X174589285Y-70476428D01*
X174446428Y-70405000D01*
X174375000Y-70333571D01*
X174303571Y-70190714D01*
X174303571Y-69905000D01*
X174375000Y-69762142D01*
X174303571Y-68405000D02*
X175303571Y-68405000D01*
X174303571Y-69047857D02*
X175089285Y-69047857D01*
X175232142Y-68976428D01*
X175303571Y-68833571D01*
X175303571Y-68619285D01*
X175232142Y-68476428D01*
X175160714Y-68405000D01*
X175303571Y-67690714D02*
X174303571Y-67690714D01*
X173803571Y-67690714D02*
X173875000Y-67762142D01*
X173946428Y-67690714D01*
X173875000Y-67619285D01*
X173803571Y-67690714D01*
X173946428Y-67690714D01*
X174303571Y-66976428D02*
X175303571Y-66976428D01*
X174446428Y-66976428D02*
X174375000Y-66905000D01*
X174303571Y-66762142D01*
X174303571Y-66547857D01*
X174375000Y-66405000D01*
X174517857Y-66333571D01*
X175303571Y-66333571D01*
X175303571Y-65405000D02*
X175232142Y-65547857D01*
X175160714Y-65619285D01*
X175017857Y-65690714D01*
X174589285Y-65690714D01*
X174446428Y-65619285D01*
X174375000Y-65547857D01*
X174303571Y-65405000D01*
X174303571Y-65190714D01*
X174375000Y-65047857D01*
X174446428Y-64976428D01*
X174589285Y-64905000D01*
X175017857Y-64905000D01*
X175160714Y-64976428D01*
X175232142Y-65047857D01*
X175303571Y-65190714D01*
X175303571Y-65405000D01*
X175303571Y-63119285D02*
X173803571Y-63119285D01*
X175303571Y-62262142D01*
X173803571Y-62262142D01*
X175303571Y-60905000D02*
X174517857Y-60905000D01*
X174375000Y-60976428D01*
X174303571Y-61119285D01*
X174303571Y-61405000D01*
X174375000Y-61547857D01*
X175232142Y-60905000D02*
X175303571Y-61047857D01*
X175303571Y-61405000D01*
X175232142Y-61547857D01*
X175089285Y-61619285D01*
X174946428Y-61619285D01*
X174803571Y-61547857D01*
X174732142Y-61405000D01*
X174732142Y-61047857D01*
X174660714Y-60905000D01*
X174303571Y-60190714D02*
X175303571Y-60190714D01*
X174446428Y-60190714D02*
X174375000Y-60119285D01*
X174303571Y-59976428D01*
X174303571Y-59762142D01*
X174375000Y-59619285D01*
X174517857Y-59547857D01*
X175303571Y-59547857D01*
X175303571Y-58619285D02*
X175232142Y-58762142D01*
X175160714Y-58833571D01*
X175017857Y-58905000D01*
X174589285Y-58905000D01*
X174446428Y-58833571D01*
X174375000Y-58762142D01*
X174303571Y-58619285D01*
X174303571Y-58405000D01*
X174375000Y-58262142D01*
X174446428Y-58190714D01*
X174589285Y-58119285D01*
X175017857Y-58119285D01*
X175160714Y-58190714D01*
X175232142Y-58262142D01*
X175303571Y-58405000D01*
X175303571Y-58619285D01*
X207434571Y-103738857D02*
X206720285Y-104238857D01*
X207434571Y-104596000D02*
X205934571Y-104596000D01*
X205934571Y-104024571D01*
X206006000Y-103881714D01*
X206077428Y-103810285D01*
X206220285Y-103738857D01*
X206434571Y-103738857D01*
X206577428Y-103810285D01*
X206648857Y-103881714D01*
X206720285Y-104024571D01*
X206720285Y-104596000D01*
X207363142Y-103167428D02*
X207434571Y-102953142D01*
X207434571Y-102596000D01*
X207363142Y-102453142D01*
X207291714Y-102381714D01*
X207148857Y-102310285D01*
X207006000Y-102310285D01*
X206863142Y-102381714D01*
X206791714Y-102453142D01*
X206720285Y-102596000D01*
X206648857Y-102881714D01*
X206577428Y-103024571D01*
X206506000Y-103096000D01*
X206363142Y-103167428D01*
X206220285Y-103167428D01*
X206077428Y-103096000D01*
X206006000Y-103024571D01*
X205934571Y-102881714D01*
X205934571Y-102524571D01*
X206006000Y-102310285D01*
X206077428Y-101738857D02*
X206006000Y-101667428D01*
X205934571Y-101524571D01*
X205934571Y-101167428D01*
X206006000Y-101024571D01*
X206077428Y-100953142D01*
X206220285Y-100881714D01*
X206363142Y-100881714D01*
X206577428Y-100953142D01*
X207434571Y-101810285D01*
X207434571Y-100881714D01*
X205934571Y-100381714D02*
X205934571Y-99453142D01*
X206506000Y-99953142D01*
X206506000Y-99738857D01*
X206577428Y-99596000D01*
X206648857Y-99524571D01*
X206791714Y-99453142D01*
X207148857Y-99453142D01*
X207291714Y-99524571D01*
X207363142Y-99596000D01*
X207434571Y-99738857D01*
X207434571Y-100167428D01*
X207363142Y-100310285D01*
X207291714Y-100381714D01*
X206077428Y-98881714D02*
X206006000Y-98810285D01*
X205934571Y-98667428D01*
X205934571Y-98310285D01*
X206006000Y-98167428D01*
X206077428Y-98096000D01*
X206220285Y-98024571D01*
X206363142Y-98024571D01*
X206577428Y-98096000D01*
X207434571Y-98953142D01*
X207434571Y-98024571D01*
X210058571Y-22268571D02*
X210058571Y-20768571D01*
X210630000Y-20768571D01*
X210772857Y-20840000D01*
X210844285Y-20911428D01*
X210915714Y-21054285D01*
X210915714Y-21268571D01*
X210844285Y-21411428D01*
X210772857Y-21482857D01*
X210630000Y-21554285D01*
X210058571Y-21554285D01*
X211772857Y-22268571D02*
X211630000Y-22197142D01*
X211558571Y-22125714D01*
X211487142Y-21982857D01*
X211487142Y-21554285D01*
X211558571Y-21411428D01*
X211630000Y-21340000D01*
X211772857Y-21268571D01*
X211987142Y-21268571D01*
X212130000Y-21340000D01*
X212201428Y-21411428D01*
X212272857Y-21554285D01*
X212272857Y-21982857D01*
X212201428Y-22125714D01*
X212130000Y-22197142D01*
X211987142Y-22268571D01*
X211772857Y-22268571D01*
X212772857Y-21268571D02*
X213058571Y-22268571D01*
X213344285Y-21554285D01*
X213630000Y-22268571D01*
X213915714Y-21268571D01*
X215058571Y-22197142D02*
X214915714Y-22268571D01*
X214630000Y-22268571D01*
X214487142Y-22197142D01*
X214415714Y-22054285D01*
X214415714Y-21482857D01*
X214487142Y-21340000D01*
X214630000Y-21268571D01*
X214915714Y-21268571D01*
X215058571Y-21340000D01*
X215130000Y-21482857D01*
X215130000Y-21625714D01*
X214415714Y-21768571D01*
X215772857Y-22268571D02*
X215772857Y-21268571D01*
X215772857Y-21554285D02*
X215844285Y-21411428D01*
X215915714Y-21340000D01*
X216058571Y-21268571D01*
X216201428Y-21268571D01*
X217844285Y-22268571D02*
X217844285Y-20768571D01*
X218558571Y-21268571D02*
X218558571Y-22268571D01*
X218558571Y-21411428D02*
X218630000Y-21340000D01*
X218772857Y-21268571D01*
X218987142Y-21268571D01*
X219130000Y-21340000D01*
X219201428Y-21482857D01*
X219201428Y-22268571D01*
X210876000Y-23054571D02*
X211876000Y-23054571D01*
X211233142Y-24554571D01*
X212447428Y-23983142D02*
X213590285Y-23983142D01*
X215090285Y-24554571D02*
X214233142Y-24554571D01*
X214661714Y-24554571D02*
X214661714Y-23054571D01*
X214518857Y-23268857D01*
X214376000Y-23411714D01*
X214233142Y-23483142D01*
X215661714Y-23197428D02*
X215733142Y-23126000D01*
X215876000Y-23054571D01*
X216233142Y-23054571D01*
X216376000Y-23126000D01*
X216447428Y-23197428D01*
X216518857Y-23340285D01*
X216518857Y-23483142D01*
X216447428Y-23697428D01*
X215590285Y-24554571D01*
X216518857Y-24554571D01*
X216947428Y-23054571D02*
X217447428Y-24554571D01*
X217947428Y-23054571D01*
X188992000Y-113678285D02*
X188896761Y-113868761D01*
X188896761Y-114154476D01*
X188992000Y-114440190D01*
X189182476Y-114630666D01*
X189372952Y-114725904D01*
X189753904Y-114821142D01*
X190039619Y-114821142D01*
X190420571Y-114725904D01*
X190611047Y-114630666D01*
X190801523Y-114440190D01*
X190896761Y-114154476D01*
X190896761Y-113964000D01*
X190801523Y-113678285D01*
X190706285Y-113583047D01*
X190039619Y-113583047D01*
X190039619Y-113964000D01*
X188896761Y-112344952D02*
X188896761Y-112154476D01*
X188992000Y-111964000D01*
X189087238Y-111868761D01*
X189277714Y-111773523D01*
X189658666Y-111678285D01*
X190134857Y-111678285D01*
X190515809Y-111773523D01*
X190706285Y-111868761D01*
X190801523Y-111964000D01*
X190896761Y-112154476D01*
X190896761Y-112344952D01*
X190801523Y-112535428D01*
X190706285Y-112630666D01*
X190515809Y-112725904D01*
X190134857Y-112821142D01*
X189658666Y-112821142D01*
X189277714Y-112725904D01*
X189087238Y-112630666D01*
X188992000Y-112535428D01*
X188896761Y-112344952D01*
X190896761Y-110821142D02*
X188896761Y-110821142D01*
X190325333Y-110154476D01*
X188896761Y-109487809D01*
X190896761Y-109487809D01*
X188896761Y-107964000D02*
X190325333Y-107964000D01*
X190611047Y-108059238D01*
X190801523Y-108249714D01*
X190896761Y-108535428D01*
X190896761Y-108725904D01*
X188896761Y-107202095D02*
X190896761Y-106725904D01*
X189468190Y-106344952D01*
X190896761Y-105964000D01*
X188896761Y-105487809D01*
X190801523Y-103297333D02*
X190896761Y-103011619D01*
X190896761Y-102535428D01*
X190801523Y-102344952D01*
X190706285Y-102249714D01*
X190515809Y-102154476D01*
X190325333Y-102154476D01*
X190134857Y-102249714D01*
X190039619Y-102344952D01*
X189944380Y-102535428D01*
X189849142Y-102916380D01*
X189753904Y-103106857D01*
X189658666Y-103202095D01*
X189468190Y-103297333D01*
X189277714Y-103297333D01*
X189087238Y-103202095D01*
X188992000Y-103106857D01*
X188896761Y-102916380D01*
X188896761Y-102440190D01*
X188992000Y-102154476D01*
X190801523Y-101392571D02*
X190896761Y-101106857D01*
X190896761Y-100630666D01*
X190801523Y-100440190D01*
X190706285Y-100344952D01*
X190515809Y-100249714D01*
X190325333Y-100249714D01*
X190134857Y-100344952D01*
X190039619Y-100440190D01*
X189944380Y-100630666D01*
X189849142Y-101011619D01*
X189753904Y-101202095D01*
X189658666Y-101297333D01*
X189468190Y-101392571D01*
X189277714Y-101392571D01*
X189087238Y-101297333D01*
X188992000Y-101202095D01*
X188896761Y-101011619D01*
X188896761Y-100535428D01*
X188992000Y-100249714D01*
X190896761Y-99392571D02*
X188896761Y-99392571D01*
X189849142Y-96916380D02*
X189849142Y-96249714D01*
X190896761Y-95964000D02*
X190896761Y-96916380D01*
X188896761Y-96916380D01*
X188896761Y-95964000D01*
X189563428Y-95106857D02*
X190896761Y-95106857D01*
X189753904Y-95106857D02*
X189658666Y-95011619D01*
X189563428Y-94821142D01*
X189563428Y-94535428D01*
X189658666Y-94344952D01*
X189849142Y-94249714D01*
X190896761Y-94249714D01*
X190801523Y-92440190D02*
X190896761Y-92630666D01*
X190896761Y-93011619D01*
X190801523Y-93202095D01*
X190706285Y-93297333D01*
X190515809Y-93392571D01*
X189944380Y-93392571D01*
X189753904Y-93297333D01*
X189658666Y-93202095D01*
X189563428Y-93011619D01*
X189563428Y-92630666D01*
X189658666Y-92440190D01*
X190896761Y-91297333D02*
X190801523Y-91487809D01*
X190706285Y-91583047D01*
X190515809Y-91678285D01*
X189944380Y-91678285D01*
X189753904Y-91583047D01*
X189658666Y-91487809D01*
X189563428Y-91297333D01*
X189563428Y-91011619D01*
X189658666Y-90821142D01*
X189753904Y-90725904D01*
X189944380Y-90630666D01*
X190515809Y-90630666D01*
X190706285Y-90725904D01*
X190801523Y-90821142D01*
X190896761Y-91011619D01*
X190896761Y-91297333D01*
X190896761Y-88916380D02*
X188896761Y-88916380D01*
X190801523Y-88916380D02*
X190896761Y-89106857D01*
X190896761Y-89487809D01*
X190801523Y-89678285D01*
X190706285Y-89773523D01*
X190515809Y-89868761D01*
X189944380Y-89868761D01*
X189753904Y-89773523D01*
X189658666Y-89678285D01*
X189563428Y-89487809D01*
X189563428Y-89106857D01*
X189658666Y-88916380D01*
X190801523Y-87202095D02*
X190896761Y-87392571D01*
X190896761Y-87773523D01*
X190801523Y-87964000D01*
X190611047Y-88059238D01*
X189849142Y-88059238D01*
X189658666Y-87964000D01*
X189563428Y-87773523D01*
X189563428Y-87392571D01*
X189658666Y-87202095D01*
X189849142Y-87106857D01*
X190039619Y-87106857D01*
X190230095Y-88059238D01*
X190896761Y-86249714D02*
X189563428Y-86249714D01*
X189944380Y-86249714D02*
X189753904Y-86154476D01*
X189658666Y-86059238D01*
X189563428Y-85868761D01*
X189563428Y-85678285D01*
X190896761Y-83487809D02*
X188896761Y-83487809D01*
X189563428Y-82535428D02*
X190896761Y-82535428D01*
X189753904Y-82535428D02*
X189658666Y-82440190D01*
X189563428Y-82249714D01*
X189563428Y-81964000D01*
X189658666Y-81773523D01*
X189849142Y-81678285D01*
X190896761Y-81678285D01*
X189563428Y-81011619D02*
X189563428Y-80249714D01*
X188896761Y-80725904D02*
X190611047Y-80725904D01*
X190801523Y-80630666D01*
X190896761Y-80440190D01*
X190896761Y-80249714D01*
X190801523Y-78821142D02*
X190896761Y-79011619D01*
X190896761Y-79392571D01*
X190801523Y-79583047D01*
X190611047Y-79678285D01*
X189849142Y-79678285D01*
X189658666Y-79583047D01*
X189563428Y-79392571D01*
X189563428Y-79011619D01*
X189658666Y-78821142D01*
X189849142Y-78725904D01*
X190039619Y-78725904D01*
X190230095Y-79678285D01*
X190896761Y-77868761D02*
X189563428Y-77868761D01*
X189944380Y-77868761D02*
X189753904Y-77773523D01*
X189658666Y-77678285D01*
X189563428Y-77487809D01*
X189563428Y-77297333D01*
X189563428Y-76916380D02*
X189563428Y-76154476D01*
X190896761Y-76630666D02*
X189182476Y-76630666D01*
X188992000Y-76535428D01*
X188896761Y-76344952D01*
X188896761Y-76154476D01*
X190896761Y-74630666D02*
X189849142Y-74630666D01*
X189658666Y-74725904D01*
X189563428Y-74916380D01*
X189563428Y-75297333D01*
X189658666Y-75487809D01*
X190801523Y-74630666D02*
X190896761Y-74821142D01*
X190896761Y-75297333D01*
X190801523Y-75487809D01*
X190611047Y-75583047D01*
X190420571Y-75583047D01*
X190230095Y-75487809D01*
X190134857Y-75297333D01*
X190134857Y-74821142D01*
X190039619Y-74630666D01*
X190801523Y-72821142D02*
X190896761Y-73011619D01*
X190896761Y-73392571D01*
X190801523Y-73583047D01*
X190706285Y-73678285D01*
X190515809Y-73773523D01*
X189944380Y-73773523D01*
X189753904Y-73678285D01*
X189658666Y-73583047D01*
X189563428Y-73392571D01*
X189563428Y-73011619D01*
X189658666Y-72821142D01*
X190801523Y-71202095D02*
X190896761Y-71392571D01*
X190896761Y-71773523D01*
X190801523Y-71964000D01*
X190611047Y-72059238D01*
X189849142Y-72059238D01*
X189658666Y-71964000D01*
X189563428Y-71773523D01*
X189563428Y-71392571D01*
X189658666Y-71202095D01*
X189849142Y-71106857D01*
X190039619Y-71106857D01*
X190230095Y-72059238D01*
D11*
G04 #@! TO.C,D1*
X194820000Y-32015000D02*
X194820000Y-31685000D01*
X194820000Y-31685000D02*
X203960000Y-31685000D01*
X203960000Y-31685000D02*
X203960000Y-32015000D01*
X194820000Y-35295000D02*
X194820000Y-35625000D01*
X194820000Y-35625000D02*
X203960000Y-35625000D01*
X203960000Y-35625000D02*
X203960000Y-35295000D01*
X196275000Y-31685000D02*
X196275000Y-35625000D01*
X196395000Y-31685000D02*
X196395000Y-35625000D01*
X196155000Y-31685000D02*
X196155000Y-35625000D01*
G04 #@! TO.C,C1*
X192654000Y-36164759D02*
X192024000Y-36164759D01*
X192339000Y-35849759D02*
X192339000Y-36479759D01*
X190902000Y-42591000D02*
X190098000Y-42591000D01*
X191133000Y-42551000D02*
X189867000Y-42551000D01*
X191302000Y-42511000D02*
X189698000Y-42511000D01*
X191440000Y-42471000D02*
X189560000Y-42471000D01*
X191559000Y-42431000D02*
X189441000Y-42431000D01*
X191665000Y-42391000D02*
X189335000Y-42391000D01*
X191762000Y-42351000D02*
X189238000Y-42351000D01*
X191850000Y-42311000D02*
X189150000Y-42311000D01*
X191932000Y-42271000D02*
X189068000Y-42271000D01*
X192009000Y-42231000D02*
X188991000Y-42231000D01*
X192081000Y-42191000D02*
X188919000Y-42191000D01*
X192150000Y-42151000D02*
X188850000Y-42151000D01*
X192214000Y-42111000D02*
X188786000Y-42111000D01*
X192276000Y-42071000D02*
X188724000Y-42071000D01*
X192334000Y-42031000D02*
X188666000Y-42031000D01*
X192390000Y-41991000D02*
X188610000Y-41991000D01*
X192444000Y-41951000D02*
X188556000Y-41951000D01*
X192495000Y-41911000D02*
X188505000Y-41911000D01*
X192544000Y-41871000D02*
X188456000Y-41871000D01*
X192592000Y-41831000D02*
X188408000Y-41831000D01*
X192637000Y-41791000D02*
X188363000Y-41791000D01*
X192682000Y-41751000D02*
X188318000Y-41751000D01*
X192724000Y-41711000D02*
X188276000Y-41711000D01*
X192765000Y-41671000D02*
X188235000Y-41671000D01*
X189460000Y-41631000D02*
X188195000Y-41631000D01*
X192805000Y-41631000D02*
X191540000Y-41631000D01*
X189460000Y-41591000D02*
X188157000Y-41591000D01*
X192843000Y-41591000D02*
X191540000Y-41591000D01*
X189460000Y-41551000D02*
X188120000Y-41551000D01*
X192880000Y-41551000D02*
X191540000Y-41551000D01*
X189460000Y-41511000D02*
X188084000Y-41511000D01*
X192916000Y-41511000D02*
X191540000Y-41511000D01*
X189460000Y-41471000D02*
X188050000Y-41471000D01*
X192950000Y-41471000D02*
X191540000Y-41471000D01*
X189460000Y-41431000D02*
X188016000Y-41431000D01*
X192984000Y-41431000D02*
X191540000Y-41431000D01*
X189460000Y-41391000D02*
X187984000Y-41391000D01*
X193016000Y-41391000D02*
X191540000Y-41391000D01*
X189460000Y-41351000D02*
X187952000Y-41351000D01*
X193048000Y-41351000D02*
X191540000Y-41351000D01*
X189460000Y-41311000D02*
X187922000Y-41311000D01*
X193078000Y-41311000D02*
X191540000Y-41311000D01*
X189460000Y-41271000D02*
X187893000Y-41271000D01*
X193107000Y-41271000D02*
X191540000Y-41271000D01*
X189460000Y-41231000D02*
X187864000Y-41231000D01*
X193136000Y-41231000D02*
X191540000Y-41231000D01*
X189460000Y-41191000D02*
X187836000Y-41191000D01*
X193164000Y-41191000D02*
X191540000Y-41191000D01*
X189460000Y-41151000D02*
X187810000Y-41151000D01*
X193190000Y-41151000D02*
X191540000Y-41151000D01*
X189460000Y-41111000D02*
X187784000Y-41111000D01*
X193216000Y-41111000D02*
X191540000Y-41111000D01*
X189460000Y-41071000D02*
X187758000Y-41071000D01*
X193242000Y-41071000D02*
X191540000Y-41071000D01*
X189460000Y-41031000D02*
X187734000Y-41031000D01*
X193266000Y-41031000D02*
X191540000Y-41031000D01*
X189460000Y-40991000D02*
X187710000Y-40991000D01*
X193290000Y-40991000D02*
X191540000Y-40991000D01*
X189460000Y-40951000D02*
X187688000Y-40951000D01*
X193312000Y-40951000D02*
X191540000Y-40951000D01*
X189460000Y-40911000D02*
X187666000Y-40911000D01*
X193334000Y-40911000D02*
X191540000Y-40911000D01*
X189460000Y-40871000D02*
X187644000Y-40871000D01*
X193356000Y-40871000D02*
X191540000Y-40871000D01*
X189460000Y-40831000D02*
X187624000Y-40831000D01*
X193376000Y-40831000D02*
X191540000Y-40831000D01*
X189460000Y-40791000D02*
X187604000Y-40791000D01*
X193396000Y-40791000D02*
X191540000Y-40791000D01*
X189460000Y-40751000D02*
X187584000Y-40751000D01*
X193416000Y-40751000D02*
X191540000Y-40751000D01*
X189460000Y-40711000D02*
X187566000Y-40711000D01*
X193434000Y-40711000D02*
X191540000Y-40711000D01*
X189460000Y-40671000D02*
X187548000Y-40671000D01*
X193452000Y-40671000D02*
X191540000Y-40671000D01*
X189460000Y-40631000D02*
X187530000Y-40631000D01*
X193470000Y-40631000D02*
X191540000Y-40631000D01*
X189460000Y-40591000D02*
X187514000Y-40591000D01*
X193486000Y-40591000D02*
X191540000Y-40591000D01*
X189460000Y-40551000D02*
X187498000Y-40551000D01*
X193502000Y-40551000D02*
X191540000Y-40551000D01*
X189460000Y-40511000D02*
X187482000Y-40511000D01*
X193518000Y-40511000D02*
X191540000Y-40511000D01*
X189460000Y-40471000D02*
X187467000Y-40471000D01*
X193533000Y-40471000D02*
X191540000Y-40471000D01*
X189460000Y-40431000D02*
X187453000Y-40431000D01*
X193547000Y-40431000D02*
X191540000Y-40431000D01*
X189460000Y-40391000D02*
X187439000Y-40391000D01*
X193561000Y-40391000D02*
X191540000Y-40391000D01*
X189460000Y-40351000D02*
X187426000Y-40351000D01*
X193574000Y-40351000D02*
X191540000Y-40351000D01*
X189460000Y-40311000D02*
X187414000Y-40311000D01*
X193586000Y-40311000D02*
X191540000Y-40311000D01*
X189460000Y-40271000D02*
X187402000Y-40271000D01*
X193598000Y-40271000D02*
X191540000Y-40271000D01*
X189460000Y-40231000D02*
X187390000Y-40231000D01*
X193610000Y-40231000D02*
X191540000Y-40231000D01*
X189460000Y-40191000D02*
X187379000Y-40191000D01*
X193621000Y-40191000D02*
X191540000Y-40191000D01*
X189460000Y-40151000D02*
X187369000Y-40151000D01*
X193631000Y-40151000D02*
X191540000Y-40151000D01*
X189460000Y-40111000D02*
X187359000Y-40111000D01*
X193641000Y-40111000D02*
X191540000Y-40111000D01*
X189460000Y-40071000D02*
X187350000Y-40071000D01*
X193650000Y-40071000D02*
X191540000Y-40071000D01*
X189460000Y-40030000D02*
X187341000Y-40030000D01*
X193659000Y-40030000D02*
X191540000Y-40030000D01*
X189460000Y-39990000D02*
X187333000Y-39990000D01*
X193667000Y-39990000D02*
X191540000Y-39990000D01*
X189460000Y-39950000D02*
X187325000Y-39950000D01*
X193675000Y-39950000D02*
X191540000Y-39950000D01*
X189460000Y-39910000D02*
X187318000Y-39910000D01*
X193682000Y-39910000D02*
X191540000Y-39910000D01*
X189460000Y-39870000D02*
X187311000Y-39870000D01*
X193689000Y-39870000D02*
X191540000Y-39870000D01*
X189460000Y-39830000D02*
X187305000Y-39830000D01*
X193695000Y-39830000D02*
X191540000Y-39830000D01*
X189460000Y-39790000D02*
X187299000Y-39790000D01*
X193701000Y-39790000D02*
X191540000Y-39790000D01*
X189460000Y-39750000D02*
X187294000Y-39750000D01*
X193706000Y-39750000D02*
X191540000Y-39750000D01*
X189460000Y-39710000D02*
X187289000Y-39710000D01*
X193711000Y-39710000D02*
X191540000Y-39710000D01*
X189460000Y-39670000D02*
X187285000Y-39670000D01*
X193715000Y-39670000D02*
X191540000Y-39670000D01*
X189460000Y-39630000D02*
X187282000Y-39630000D01*
X193718000Y-39630000D02*
X191540000Y-39630000D01*
X189460000Y-39590000D02*
X187278000Y-39590000D01*
X193722000Y-39590000D02*
X191540000Y-39590000D01*
X193724000Y-39550000D02*
X187276000Y-39550000D01*
X193727000Y-39510000D02*
X187273000Y-39510000D01*
X193728000Y-39470000D02*
X187272000Y-39470000D01*
X193730000Y-39430000D02*
X187270000Y-39430000D01*
X193730000Y-39390000D02*
X187270000Y-39390000D01*
X193730000Y-39350000D02*
X187270000Y-39350000D01*
X193770000Y-39350000D02*
G75*
G03X193770000Y-39350000I-3270000J0D01*
G01*
G04 #@! TO.C,C2*
X196945000Y-26015000D02*
G75*
G03X196945000Y-26015000I-3270000J0D01*
G01*
X190445000Y-26015000D02*
X196905000Y-26015000D01*
X190445000Y-25975000D02*
X196905000Y-25975000D01*
X190445000Y-25935000D02*
X196905000Y-25935000D01*
X190447000Y-25895000D02*
X196903000Y-25895000D01*
X190448000Y-25855000D02*
X196902000Y-25855000D01*
X190451000Y-25815000D02*
X196899000Y-25815000D01*
X190453000Y-25775000D02*
X192635000Y-25775000D01*
X194715000Y-25775000D02*
X196897000Y-25775000D01*
X190457000Y-25735000D02*
X192635000Y-25735000D01*
X194715000Y-25735000D02*
X196893000Y-25735000D01*
X190460000Y-25695000D02*
X192635000Y-25695000D01*
X194715000Y-25695000D02*
X196890000Y-25695000D01*
X190464000Y-25655000D02*
X192635000Y-25655000D01*
X194715000Y-25655000D02*
X196886000Y-25655000D01*
X190469000Y-25615000D02*
X192635000Y-25615000D01*
X194715000Y-25615000D02*
X196881000Y-25615000D01*
X190474000Y-25575000D02*
X192635000Y-25575000D01*
X194715000Y-25575000D02*
X196876000Y-25575000D01*
X190480000Y-25535000D02*
X192635000Y-25535000D01*
X194715000Y-25535000D02*
X196870000Y-25535000D01*
X190486000Y-25495000D02*
X192635000Y-25495000D01*
X194715000Y-25495000D02*
X196864000Y-25495000D01*
X190493000Y-25455000D02*
X192635000Y-25455000D01*
X194715000Y-25455000D02*
X196857000Y-25455000D01*
X190500000Y-25415000D02*
X192635000Y-25415000D01*
X194715000Y-25415000D02*
X196850000Y-25415000D01*
X190508000Y-25375000D02*
X192635000Y-25375000D01*
X194715000Y-25375000D02*
X196842000Y-25375000D01*
X190516000Y-25335000D02*
X192635000Y-25335000D01*
X194715000Y-25335000D02*
X196834000Y-25335000D01*
X190525000Y-25294000D02*
X192635000Y-25294000D01*
X194715000Y-25294000D02*
X196825000Y-25294000D01*
X190534000Y-25254000D02*
X192635000Y-25254000D01*
X194715000Y-25254000D02*
X196816000Y-25254000D01*
X190544000Y-25214000D02*
X192635000Y-25214000D01*
X194715000Y-25214000D02*
X196806000Y-25214000D01*
X190554000Y-25174000D02*
X192635000Y-25174000D01*
X194715000Y-25174000D02*
X196796000Y-25174000D01*
X190565000Y-25134000D02*
X192635000Y-25134000D01*
X194715000Y-25134000D02*
X196785000Y-25134000D01*
X190577000Y-25094000D02*
X192635000Y-25094000D01*
X194715000Y-25094000D02*
X196773000Y-25094000D01*
X190589000Y-25054000D02*
X192635000Y-25054000D01*
X194715000Y-25054000D02*
X196761000Y-25054000D01*
X190601000Y-25014000D02*
X192635000Y-25014000D01*
X194715000Y-25014000D02*
X196749000Y-25014000D01*
X190614000Y-24974000D02*
X192635000Y-24974000D01*
X194715000Y-24974000D02*
X196736000Y-24974000D01*
X190628000Y-24934000D02*
X192635000Y-24934000D01*
X194715000Y-24934000D02*
X196722000Y-24934000D01*
X190642000Y-24894000D02*
X192635000Y-24894000D01*
X194715000Y-24894000D02*
X196708000Y-24894000D01*
X190657000Y-24854000D02*
X192635000Y-24854000D01*
X194715000Y-24854000D02*
X196693000Y-24854000D01*
X190673000Y-24814000D02*
X192635000Y-24814000D01*
X194715000Y-24814000D02*
X196677000Y-24814000D01*
X190689000Y-24774000D02*
X192635000Y-24774000D01*
X194715000Y-24774000D02*
X196661000Y-24774000D01*
X190705000Y-24734000D02*
X192635000Y-24734000D01*
X194715000Y-24734000D02*
X196645000Y-24734000D01*
X190723000Y-24694000D02*
X192635000Y-24694000D01*
X194715000Y-24694000D02*
X196627000Y-24694000D01*
X190741000Y-24654000D02*
X192635000Y-24654000D01*
X194715000Y-24654000D02*
X196609000Y-24654000D01*
X190759000Y-24614000D02*
X192635000Y-24614000D01*
X194715000Y-24614000D02*
X196591000Y-24614000D01*
X190779000Y-24574000D02*
X192635000Y-24574000D01*
X194715000Y-24574000D02*
X196571000Y-24574000D01*
X190799000Y-24534000D02*
X192635000Y-24534000D01*
X194715000Y-24534000D02*
X196551000Y-24534000D01*
X190819000Y-24494000D02*
X192635000Y-24494000D01*
X194715000Y-24494000D02*
X196531000Y-24494000D01*
X190841000Y-24454000D02*
X192635000Y-24454000D01*
X194715000Y-24454000D02*
X196509000Y-24454000D01*
X190863000Y-24414000D02*
X192635000Y-24414000D01*
X194715000Y-24414000D02*
X196487000Y-24414000D01*
X190885000Y-24374000D02*
X192635000Y-24374000D01*
X194715000Y-24374000D02*
X196465000Y-24374000D01*
X190909000Y-24334000D02*
X192635000Y-24334000D01*
X194715000Y-24334000D02*
X196441000Y-24334000D01*
X190933000Y-24294000D02*
X192635000Y-24294000D01*
X194715000Y-24294000D02*
X196417000Y-24294000D01*
X190959000Y-24254000D02*
X192635000Y-24254000D01*
X194715000Y-24254000D02*
X196391000Y-24254000D01*
X190985000Y-24214000D02*
X192635000Y-24214000D01*
X194715000Y-24214000D02*
X196365000Y-24214000D01*
X191011000Y-24174000D02*
X192635000Y-24174000D01*
X194715000Y-24174000D02*
X196339000Y-24174000D01*
X191039000Y-24134000D02*
X192635000Y-24134000D01*
X194715000Y-24134000D02*
X196311000Y-24134000D01*
X191068000Y-24094000D02*
X192635000Y-24094000D01*
X194715000Y-24094000D02*
X196282000Y-24094000D01*
X191097000Y-24054000D02*
X192635000Y-24054000D01*
X194715000Y-24054000D02*
X196253000Y-24054000D01*
X191127000Y-24014000D02*
X192635000Y-24014000D01*
X194715000Y-24014000D02*
X196223000Y-24014000D01*
X191159000Y-23974000D02*
X192635000Y-23974000D01*
X194715000Y-23974000D02*
X196191000Y-23974000D01*
X191191000Y-23934000D02*
X192635000Y-23934000D01*
X194715000Y-23934000D02*
X196159000Y-23934000D01*
X191225000Y-23894000D02*
X192635000Y-23894000D01*
X194715000Y-23894000D02*
X196125000Y-23894000D01*
X191259000Y-23854000D02*
X192635000Y-23854000D01*
X194715000Y-23854000D02*
X196091000Y-23854000D01*
X191295000Y-23814000D02*
X192635000Y-23814000D01*
X194715000Y-23814000D02*
X196055000Y-23814000D01*
X191332000Y-23774000D02*
X192635000Y-23774000D01*
X194715000Y-23774000D02*
X196018000Y-23774000D01*
X191370000Y-23734000D02*
X192635000Y-23734000D01*
X194715000Y-23734000D02*
X195980000Y-23734000D01*
X191410000Y-23694000D02*
X195940000Y-23694000D01*
X191451000Y-23654000D02*
X195899000Y-23654000D01*
X191493000Y-23614000D02*
X195857000Y-23614000D01*
X191538000Y-23574000D02*
X195812000Y-23574000D01*
X191583000Y-23534000D02*
X195767000Y-23534000D01*
X191631000Y-23494000D02*
X195719000Y-23494000D01*
X191680000Y-23454000D02*
X195670000Y-23454000D01*
X191731000Y-23414000D02*
X195619000Y-23414000D01*
X191785000Y-23374000D02*
X195565000Y-23374000D01*
X191841000Y-23334000D02*
X195509000Y-23334000D01*
X191899000Y-23294000D02*
X195451000Y-23294000D01*
X191961000Y-23254000D02*
X195389000Y-23254000D01*
X192025000Y-23214000D02*
X195325000Y-23214000D01*
X192094000Y-23174000D02*
X195256000Y-23174000D01*
X192166000Y-23134000D02*
X195184000Y-23134000D01*
X192243000Y-23094000D02*
X195107000Y-23094000D01*
X192325000Y-23054000D02*
X195025000Y-23054000D01*
X192413000Y-23014000D02*
X194937000Y-23014000D01*
X192510000Y-22974000D02*
X194840000Y-22974000D01*
X192616000Y-22934000D02*
X194734000Y-22934000D01*
X192735000Y-22894000D02*
X194615000Y-22894000D01*
X192873000Y-22854000D02*
X194477000Y-22854000D01*
X193042000Y-22814000D02*
X194308000Y-22814000D01*
X193273000Y-22774000D02*
X194077000Y-22774000D01*
X191836000Y-29515241D02*
X191836000Y-28885241D01*
X191521000Y-29200241D02*
X192151000Y-29200241D01*
G04 #@! TO.C,C3*
X187405000Y-98405000D02*
G75*
G03X187405000Y-98405000I-2620000J0D01*
G01*
X187365000Y-98405000D02*
X182205000Y-98405000D01*
X187365000Y-98445000D02*
X182205000Y-98445000D01*
X187364000Y-98485000D02*
X182206000Y-98485000D01*
X187363000Y-98525000D02*
X182207000Y-98525000D01*
X187361000Y-98565000D02*
X182209000Y-98565000D01*
X187358000Y-98605000D02*
X182212000Y-98605000D01*
X187354000Y-98645000D02*
X185825000Y-98645000D01*
X183745000Y-98645000D02*
X182216000Y-98645000D01*
X187350000Y-98685000D02*
X185825000Y-98685000D01*
X183745000Y-98685000D02*
X182220000Y-98685000D01*
X187346000Y-98725000D02*
X185825000Y-98725000D01*
X183745000Y-98725000D02*
X182224000Y-98725000D01*
X187341000Y-98765000D02*
X185825000Y-98765000D01*
X183745000Y-98765000D02*
X182229000Y-98765000D01*
X187335000Y-98805000D02*
X185825000Y-98805000D01*
X183745000Y-98805000D02*
X182235000Y-98805000D01*
X187328000Y-98845000D02*
X185825000Y-98845000D01*
X183745000Y-98845000D02*
X182242000Y-98845000D01*
X187321000Y-98885000D02*
X185825000Y-98885000D01*
X183745000Y-98885000D02*
X182249000Y-98885000D01*
X187313000Y-98925000D02*
X185825000Y-98925000D01*
X183745000Y-98925000D02*
X182257000Y-98925000D01*
X187305000Y-98965000D02*
X185825000Y-98965000D01*
X183745000Y-98965000D02*
X182265000Y-98965000D01*
X187296000Y-99005000D02*
X185825000Y-99005000D01*
X183745000Y-99005000D02*
X182274000Y-99005000D01*
X187286000Y-99045000D02*
X185825000Y-99045000D01*
X183745000Y-99045000D02*
X182284000Y-99045000D01*
X187276000Y-99085000D02*
X185825000Y-99085000D01*
X183745000Y-99085000D02*
X182294000Y-99085000D01*
X187265000Y-99126000D02*
X185825000Y-99126000D01*
X183745000Y-99126000D02*
X182305000Y-99126000D01*
X187253000Y-99166000D02*
X185825000Y-99166000D01*
X183745000Y-99166000D02*
X182317000Y-99166000D01*
X187240000Y-99206000D02*
X185825000Y-99206000D01*
X183745000Y-99206000D02*
X182330000Y-99206000D01*
X187227000Y-99246000D02*
X185825000Y-99246000D01*
X183745000Y-99246000D02*
X182343000Y-99246000D01*
X187213000Y-99286000D02*
X185825000Y-99286000D01*
X183745000Y-99286000D02*
X182357000Y-99286000D01*
X187199000Y-99326000D02*
X185825000Y-99326000D01*
X183745000Y-99326000D02*
X182371000Y-99326000D01*
X187183000Y-99366000D02*
X185825000Y-99366000D01*
X183745000Y-99366000D02*
X182387000Y-99366000D01*
X187167000Y-99406000D02*
X185825000Y-99406000D01*
X183745000Y-99406000D02*
X182403000Y-99406000D01*
X187150000Y-99446000D02*
X185825000Y-99446000D01*
X183745000Y-99446000D02*
X182420000Y-99446000D01*
X187133000Y-99486000D02*
X185825000Y-99486000D01*
X183745000Y-99486000D02*
X182437000Y-99486000D01*
X187114000Y-99526000D02*
X185825000Y-99526000D01*
X183745000Y-99526000D02*
X182456000Y-99526000D01*
X187095000Y-99566000D02*
X185825000Y-99566000D01*
X183745000Y-99566000D02*
X182475000Y-99566000D01*
X187075000Y-99606000D02*
X185825000Y-99606000D01*
X183745000Y-99606000D02*
X182495000Y-99606000D01*
X187053000Y-99646000D02*
X185825000Y-99646000D01*
X183745000Y-99646000D02*
X182517000Y-99646000D01*
X187032000Y-99686000D02*
X185825000Y-99686000D01*
X183745000Y-99686000D02*
X182538000Y-99686000D01*
X187009000Y-99726000D02*
X185825000Y-99726000D01*
X183745000Y-99726000D02*
X182561000Y-99726000D01*
X186985000Y-99766000D02*
X185825000Y-99766000D01*
X183745000Y-99766000D02*
X182585000Y-99766000D01*
X186960000Y-99806000D02*
X185825000Y-99806000D01*
X183745000Y-99806000D02*
X182610000Y-99806000D01*
X186934000Y-99846000D02*
X185825000Y-99846000D01*
X183745000Y-99846000D02*
X182636000Y-99846000D01*
X186907000Y-99886000D02*
X185825000Y-99886000D01*
X183745000Y-99886000D02*
X182663000Y-99886000D01*
X186880000Y-99926000D02*
X185825000Y-99926000D01*
X183745000Y-99926000D02*
X182690000Y-99926000D01*
X186850000Y-99966000D02*
X185825000Y-99966000D01*
X183745000Y-99966000D02*
X182720000Y-99966000D01*
X186820000Y-100006000D02*
X185825000Y-100006000D01*
X183745000Y-100006000D02*
X182750000Y-100006000D01*
X186789000Y-100046000D02*
X185825000Y-100046000D01*
X183745000Y-100046000D02*
X182781000Y-100046000D01*
X186756000Y-100086000D02*
X185825000Y-100086000D01*
X183745000Y-100086000D02*
X182814000Y-100086000D01*
X186722000Y-100126000D02*
X185825000Y-100126000D01*
X183745000Y-100126000D02*
X182848000Y-100126000D01*
X186686000Y-100166000D02*
X185825000Y-100166000D01*
X183745000Y-100166000D02*
X182884000Y-100166000D01*
X186649000Y-100206000D02*
X185825000Y-100206000D01*
X183745000Y-100206000D02*
X182921000Y-100206000D01*
X186611000Y-100246000D02*
X185825000Y-100246000D01*
X183745000Y-100246000D02*
X182959000Y-100246000D01*
X186570000Y-100286000D02*
X185825000Y-100286000D01*
X183745000Y-100286000D02*
X183000000Y-100286000D01*
X186528000Y-100326000D02*
X185825000Y-100326000D01*
X183745000Y-100326000D02*
X183042000Y-100326000D01*
X186484000Y-100366000D02*
X185825000Y-100366000D01*
X183745000Y-100366000D02*
X183086000Y-100366000D01*
X186438000Y-100406000D02*
X185825000Y-100406000D01*
X183745000Y-100406000D02*
X183132000Y-100406000D01*
X186390000Y-100446000D02*
X185825000Y-100446000D01*
X183745000Y-100446000D02*
X183180000Y-100446000D01*
X186339000Y-100486000D02*
X185825000Y-100486000D01*
X183745000Y-100486000D02*
X183231000Y-100486000D01*
X186285000Y-100526000D02*
X185825000Y-100526000D01*
X183745000Y-100526000D02*
X183285000Y-100526000D01*
X186228000Y-100566000D02*
X185825000Y-100566000D01*
X183745000Y-100566000D02*
X183342000Y-100566000D01*
X186168000Y-100606000D02*
X185825000Y-100606000D01*
X183745000Y-100606000D02*
X183402000Y-100606000D01*
X186104000Y-100646000D02*
X185825000Y-100646000D01*
X183745000Y-100646000D02*
X183466000Y-100646000D01*
X186036000Y-100686000D02*
X185825000Y-100686000D01*
X183745000Y-100686000D02*
X183534000Y-100686000D01*
X185963000Y-100726000D02*
X183607000Y-100726000D01*
X185883000Y-100766000D02*
X183687000Y-100766000D01*
X185796000Y-100806000D02*
X183774000Y-100806000D01*
X185700000Y-100846000D02*
X183870000Y-100846000D01*
X185590000Y-100886000D02*
X183980000Y-100886000D01*
X185462000Y-100926000D02*
X184108000Y-100926000D01*
X185303000Y-100966000D02*
X184267000Y-100966000D01*
X185069000Y-101006000D02*
X184501000Y-101006000D01*
X186260000Y-95600225D02*
X186260000Y-96100225D01*
X186510000Y-95850225D02*
X186010000Y-95850225D01*
G04 #@! TO.C,C4*
X186510000Y-102200225D02*
X186010000Y-102200225D01*
X186260000Y-101950225D02*
X186260000Y-102450225D01*
X185069000Y-107356000D02*
X184501000Y-107356000D01*
X185303000Y-107316000D02*
X184267000Y-107316000D01*
X185462000Y-107276000D02*
X184108000Y-107276000D01*
X185590000Y-107236000D02*
X183980000Y-107236000D01*
X185700000Y-107196000D02*
X183870000Y-107196000D01*
X185796000Y-107156000D02*
X183774000Y-107156000D01*
X185883000Y-107116000D02*
X183687000Y-107116000D01*
X185963000Y-107076000D02*
X183607000Y-107076000D01*
X183745000Y-107036000D02*
X183534000Y-107036000D01*
X186036000Y-107036000D02*
X185825000Y-107036000D01*
X183745000Y-106996000D02*
X183466000Y-106996000D01*
X186104000Y-106996000D02*
X185825000Y-106996000D01*
X183745000Y-106956000D02*
X183402000Y-106956000D01*
X186168000Y-106956000D02*
X185825000Y-106956000D01*
X183745000Y-106916000D02*
X183342000Y-106916000D01*
X186228000Y-106916000D02*
X185825000Y-106916000D01*
X183745000Y-106876000D02*
X183285000Y-106876000D01*
X186285000Y-106876000D02*
X185825000Y-106876000D01*
X183745000Y-106836000D02*
X183231000Y-106836000D01*
X186339000Y-106836000D02*
X185825000Y-106836000D01*
X183745000Y-106796000D02*
X183180000Y-106796000D01*
X186390000Y-106796000D02*
X185825000Y-106796000D01*
X183745000Y-106756000D02*
X183132000Y-106756000D01*
X186438000Y-106756000D02*
X185825000Y-106756000D01*
X183745000Y-106716000D02*
X183086000Y-106716000D01*
X186484000Y-106716000D02*
X185825000Y-106716000D01*
X183745000Y-106676000D02*
X183042000Y-106676000D01*
X186528000Y-106676000D02*
X185825000Y-106676000D01*
X183745000Y-106636000D02*
X183000000Y-106636000D01*
X186570000Y-106636000D02*
X185825000Y-106636000D01*
X183745000Y-106596000D02*
X182959000Y-106596000D01*
X186611000Y-106596000D02*
X185825000Y-106596000D01*
X183745000Y-106556000D02*
X182921000Y-106556000D01*
X186649000Y-106556000D02*
X185825000Y-106556000D01*
X183745000Y-106516000D02*
X182884000Y-106516000D01*
X186686000Y-106516000D02*
X185825000Y-106516000D01*
X183745000Y-106476000D02*
X182848000Y-106476000D01*
X186722000Y-106476000D02*
X185825000Y-106476000D01*
X183745000Y-106436000D02*
X182814000Y-106436000D01*
X186756000Y-106436000D02*
X185825000Y-106436000D01*
X183745000Y-106396000D02*
X182781000Y-106396000D01*
X186789000Y-106396000D02*
X185825000Y-106396000D01*
X183745000Y-106356000D02*
X182750000Y-106356000D01*
X186820000Y-106356000D02*
X185825000Y-106356000D01*
X183745000Y-106316000D02*
X182720000Y-106316000D01*
X186850000Y-106316000D02*
X185825000Y-106316000D01*
X183745000Y-106276000D02*
X182690000Y-106276000D01*
X186880000Y-106276000D02*
X185825000Y-106276000D01*
X183745000Y-106236000D02*
X182663000Y-106236000D01*
X186907000Y-106236000D02*
X185825000Y-106236000D01*
X183745000Y-106196000D02*
X182636000Y-106196000D01*
X186934000Y-106196000D02*
X185825000Y-106196000D01*
X183745000Y-106156000D02*
X182610000Y-106156000D01*
X186960000Y-106156000D02*
X185825000Y-106156000D01*
X183745000Y-106116000D02*
X182585000Y-106116000D01*
X186985000Y-106116000D02*
X185825000Y-106116000D01*
X183745000Y-106076000D02*
X182561000Y-106076000D01*
X187009000Y-106076000D02*
X185825000Y-106076000D01*
X183745000Y-106036000D02*
X182538000Y-106036000D01*
X187032000Y-106036000D02*
X185825000Y-106036000D01*
X183745000Y-105996000D02*
X182517000Y-105996000D01*
X187053000Y-105996000D02*
X185825000Y-105996000D01*
X183745000Y-105956000D02*
X182495000Y-105956000D01*
X187075000Y-105956000D02*
X185825000Y-105956000D01*
X183745000Y-105916000D02*
X182475000Y-105916000D01*
X187095000Y-105916000D02*
X185825000Y-105916000D01*
X183745000Y-105876000D02*
X182456000Y-105876000D01*
X187114000Y-105876000D02*
X185825000Y-105876000D01*
X183745000Y-105836000D02*
X182437000Y-105836000D01*
X187133000Y-105836000D02*
X185825000Y-105836000D01*
X183745000Y-105796000D02*
X182420000Y-105796000D01*
X187150000Y-105796000D02*
X185825000Y-105796000D01*
X183745000Y-105756000D02*
X182403000Y-105756000D01*
X187167000Y-105756000D02*
X185825000Y-105756000D01*
X183745000Y-105716000D02*
X182387000Y-105716000D01*
X187183000Y-105716000D02*
X185825000Y-105716000D01*
X183745000Y-105676000D02*
X182371000Y-105676000D01*
X187199000Y-105676000D02*
X185825000Y-105676000D01*
X183745000Y-105636000D02*
X182357000Y-105636000D01*
X187213000Y-105636000D02*
X185825000Y-105636000D01*
X183745000Y-105596000D02*
X182343000Y-105596000D01*
X187227000Y-105596000D02*
X185825000Y-105596000D01*
X183745000Y-105556000D02*
X182330000Y-105556000D01*
X187240000Y-105556000D02*
X185825000Y-105556000D01*
X183745000Y-105516000D02*
X182317000Y-105516000D01*
X187253000Y-105516000D02*
X185825000Y-105516000D01*
X183745000Y-105476000D02*
X182305000Y-105476000D01*
X187265000Y-105476000D02*
X185825000Y-105476000D01*
X183745000Y-105435000D02*
X182294000Y-105435000D01*
X187276000Y-105435000D02*
X185825000Y-105435000D01*
X183745000Y-105395000D02*
X182284000Y-105395000D01*
X187286000Y-105395000D02*
X185825000Y-105395000D01*
X183745000Y-105355000D02*
X182274000Y-105355000D01*
X187296000Y-105355000D02*
X185825000Y-105355000D01*
X183745000Y-105315000D02*
X182265000Y-105315000D01*
X187305000Y-105315000D02*
X185825000Y-105315000D01*
X183745000Y-105275000D02*
X182257000Y-105275000D01*
X187313000Y-105275000D02*
X185825000Y-105275000D01*
X183745000Y-105235000D02*
X182249000Y-105235000D01*
X187321000Y-105235000D02*
X185825000Y-105235000D01*
X183745000Y-105195000D02*
X182242000Y-105195000D01*
X187328000Y-105195000D02*
X185825000Y-105195000D01*
X183745000Y-105155000D02*
X182235000Y-105155000D01*
X187335000Y-105155000D02*
X185825000Y-105155000D01*
X183745000Y-105115000D02*
X182229000Y-105115000D01*
X187341000Y-105115000D02*
X185825000Y-105115000D01*
X183745000Y-105075000D02*
X182224000Y-105075000D01*
X187346000Y-105075000D02*
X185825000Y-105075000D01*
X183745000Y-105035000D02*
X182220000Y-105035000D01*
X187350000Y-105035000D02*
X185825000Y-105035000D01*
X183745000Y-104995000D02*
X182216000Y-104995000D01*
X187354000Y-104995000D02*
X185825000Y-104995000D01*
X187358000Y-104955000D02*
X182212000Y-104955000D01*
X187361000Y-104915000D02*
X182209000Y-104915000D01*
X187363000Y-104875000D02*
X182207000Y-104875000D01*
X187364000Y-104835000D02*
X182206000Y-104835000D01*
X187365000Y-104795000D02*
X182205000Y-104795000D01*
X187365000Y-104755000D02*
X182205000Y-104755000D01*
X187405000Y-104755000D02*
G75*
G03X187405000Y-104755000I-2620000J0D01*
G01*
G04 #@! TO.C,C5*
X183060000Y-94014775D02*
X183560000Y-94014775D01*
X183310000Y-94264775D02*
X183310000Y-93764775D01*
X184501000Y-88859000D02*
X185069000Y-88859000D01*
X184267000Y-88899000D02*
X185303000Y-88899000D01*
X184108000Y-88939000D02*
X185462000Y-88939000D01*
X183980000Y-88979000D02*
X185590000Y-88979000D01*
X183870000Y-89019000D02*
X185700000Y-89019000D01*
X183774000Y-89059000D02*
X185796000Y-89059000D01*
X183687000Y-89099000D02*
X185883000Y-89099000D01*
X183607000Y-89139000D02*
X185963000Y-89139000D01*
X185825000Y-89179000D02*
X186036000Y-89179000D01*
X183534000Y-89179000D02*
X183745000Y-89179000D01*
X185825000Y-89219000D02*
X186104000Y-89219000D01*
X183466000Y-89219000D02*
X183745000Y-89219000D01*
X185825000Y-89259000D02*
X186168000Y-89259000D01*
X183402000Y-89259000D02*
X183745000Y-89259000D01*
X185825000Y-89299000D02*
X186228000Y-89299000D01*
X183342000Y-89299000D02*
X183745000Y-89299000D01*
X185825000Y-89339000D02*
X186285000Y-89339000D01*
X183285000Y-89339000D02*
X183745000Y-89339000D01*
X185825000Y-89379000D02*
X186339000Y-89379000D01*
X183231000Y-89379000D02*
X183745000Y-89379000D01*
X185825000Y-89419000D02*
X186390000Y-89419000D01*
X183180000Y-89419000D02*
X183745000Y-89419000D01*
X185825000Y-89459000D02*
X186438000Y-89459000D01*
X183132000Y-89459000D02*
X183745000Y-89459000D01*
X185825000Y-89499000D02*
X186484000Y-89499000D01*
X183086000Y-89499000D02*
X183745000Y-89499000D01*
X185825000Y-89539000D02*
X186528000Y-89539000D01*
X183042000Y-89539000D02*
X183745000Y-89539000D01*
X185825000Y-89579000D02*
X186570000Y-89579000D01*
X183000000Y-89579000D02*
X183745000Y-89579000D01*
X185825000Y-89619000D02*
X186611000Y-89619000D01*
X182959000Y-89619000D02*
X183745000Y-89619000D01*
X185825000Y-89659000D02*
X186649000Y-89659000D01*
X182921000Y-89659000D02*
X183745000Y-89659000D01*
X185825000Y-89699000D02*
X186686000Y-89699000D01*
X182884000Y-89699000D02*
X183745000Y-89699000D01*
X185825000Y-89739000D02*
X186722000Y-89739000D01*
X182848000Y-89739000D02*
X183745000Y-89739000D01*
X185825000Y-89779000D02*
X186756000Y-89779000D01*
X182814000Y-89779000D02*
X183745000Y-89779000D01*
X185825000Y-89819000D02*
X186789000Y-89819000D01*
X182781000Y-89819000D02*
X183745000Y-89819000D01*
X185825000Y-89859000D02*
X186820000Y-89859000D01*
X182750000Y-89859000D02*
X183745000Y-89859000D01*
X185825000Y-89899000D02*
X186850000Y-89899000D01*
X182720000Y-89899000D02*
X183745000Y-89899000D01*
X185825000Y-89939000D02*
X186880000Y-89939000D01*
X182690000Y-89939000D02*
X183745000Y-89939000D01*
X185825000Y-89979000D02*
X186907000Y-89979000D01*
X182663000Y-89979000D02*
X183745000Y-89979000D01*
X185825000Y-90019000D02*
X186934000Y-90019000D01*
X182636000Y-90019000D02*
X183745000Y-90019000D01*
X185825000Y-90059000D02*
X186960000Y-90059000D01*
X182610000Y-90059000D02*
X183745000Y-90059000D01*
X185825000Y-90099000D02*
X186985000Y-90099000D01*
X182585000Y-90099000D02*
X183745000Y-90099000D01*
X185825000Y-90139000D02*
X187009000Y-90139000D01*
X182561000Y-90139000D02*
X183745000Y-90139000D01*
X185825000Y-90179000D02*
X187032000Y-90179000D01*
X182538000Y-90179000D02*
X183745000Y-90179000D01*
X185825000Y-90219000D02*
X187053000Y-90219000D01*
X182517000Y-90219000D02*
X183745000Y-90219000D01*
X185825000Y-90259000D02*
X187075000Y-90259000D01*
X182495000Y-90259000D02*
X183745000Y-90259000D01*
X185825000Y-90299000D02*
X187095000Y-90299000D01*
X182475000Y-90299000D02*
X183745000Y-90299000D01*
X185825000Y-90339000D02*
X187114000Y-90339000D01*
X182456000Y-90339000D02*
X183745000Y-90339000D01*
X185825000Y-90379000D02*
X187133000Y-90379000D01*
X182437000Y-90379000D02*
X183745000Y-90379000D01*
X185825000Y-90419000D02*
X187150000Y-90419000D01*
X182420000Y-90419000D02*
X183745000Y-90419000D01*
X185825000Y-90459000D02*
X187167000Y-90459000D01*
X182403000Y-90459000D02*
X183745000Y-90459000D01*
X185825000Y-90499000D02*
X187183000Y-90499000D01*
X182387000Y-90499000D02*
X183745000Y-90499000D01*
X185825000Y-90539000D02*
X187199000Y-90539000D01*
X182371000Y-90539000D02*
X183745000Y-90539000D01*
X185825000Y-90579000D02*
X187213000Y-90579000D01*
X182357000Y-90579000D02*
X183745000Y-90579000D01*
X185825000Y-90619000D02*
X187227000Y-90619000D01*
X182343000Y-90619000D02*
X183745000Y-90619000D01*
X185825000Y-90659000D02*
X187240000Y-90659000D01*
X182330000Y-90659000D02*
X183745000Y-90659000D01*
X185825000Y-90699000D02*
X187253000Y-90699000D01*
X182317000Y-90699000D02*
X183745000Y-90699000D01*
X185825000Y-90739000D02*
X187265000Y-90739000D01*
X182305000Y-90739000D02*
X183745000Y-90739000D01*
X185825000Y-90780000D02*
X187276000Y-90780000D01*
X182294000Y-90780000D02*
X183745000Y-90780000D01*
X185825000Y-90820000D02*
X187286000Y-90820000D01*
X182284000Y-90820000D02*
X183745000Y-90820000D01*
X185825000Y-90860000D02*
X187296000Y-90860000D01*
X182274000Y-90860000D02*
X183745000Y-90860000D01*
X185825000Y-90900000D02*
X187305000Y-90900000D01*
X182265000Y-90900000D02*
X183745000Y-90900000D01*
X185825000Y-90940000D02*
X187313000Y-90940000D01*
X182257000Y-90940000D02*
X183745000Y-90940000D01*
X185825000Y-90980000D02*
X187321000Y-90980000D01*
X182249000Y-90980000D02*
X183745000Y-90980000D01*
X185825000Y-91020000D02*
X187328000Y-91020000D01*
X182242000Y-91020000D02*
X183745000Y-91020000D01*
X185825000Y-91060000D02*
X187335000Y-91060000D01*
X182235000Y-91060000D02*
X183745000Y-91060000D01*
X185825000Y-91100000D02*
X187341000Y-91100000D01*
X182229000Y-91100000D02*
X183745000Y-91100000D01*
X185825000Y-91140000D02*
X187346000Y-91140000D01*
X182224000Y-91140000D02*
X183745000Y-91140000D01*
X185825000Y-91180000D02*
X187350000Y-91180000D01*
X182220000Y-91180000D02*
X183745000Y-91180000D01*
X185825000Y-91220000D02*
X187354000Y-91220000D01*
X182216000Y-91220000D02*
X183745000Y-91220000D01*
X182212000Y-91260000D02*
X187358000Y-91260000D01*
X182209000Y-91300000D02*
X187361000Y-91300000D01*
X182207000Y-91340000D02*
X187363000Y-91340000D01*
X182206000Y-91380000D02*
X187364000Y-91380000D01*
X182205000Y-91420000D02*
X187365000Y-91420000D01*
X182205000Y-91460000D02*
X187365000Y-91460000D01*
X187405000Y-91460000D02*
G75*
G03X187405000Y-91460000I-2620000J0D01*
G01*
G04 #@! TO.C,C6*
X187405000Y-111780000D02*
G75*
G03X187405000Y-111780000I-2620000J0D01*
G01*
X182205000Y-111780000D02*
X187365000Y-111780000D01*
X182205000Y-111740000D02*
X187365000Y-111740000D01*
X182206000Y-111700000D02*
X187364000Y-111700000D01*
X182207000Y-111660000D02*
X187363000Y-111660000D01*
X182209000Y-111620000D02*
X187361000Y-111620000D01*
X182212000Y-111580000D02*
X187358000Y-111580000D01*
X182216000Y-111540000D02*
X183745000Y-111540000D01*
X185825000Y-111540000D02*
X187354000Y-111540000D01*
X182220000Y-111500000D02*
X183745000Y-111500000D01*
X185825000Y-111500000D02*
X187350000Y-111500000D01*
X182224000Y-111460000D02*
X183745000Y-111460000D01*
X185825000Y-111460000D02*
X187346000Y-111460000D01*
X182229000Y-111420000D02*
X183745000Y-111420000D01*
X185825000Y-111420000D02*
X187341000Y-111420000D01*
X182235000Y-111380000D02*
X183745000Y-111380000D01*
X185825000Y-111380000D02*
X187335000Y-111380000D01*
X182242000Y-111340000D02*
X183745000Y-111340000D01*
X185825000Y-111340000D02*
X187328000Y-111340000D01*
X182249000Y-111300000D02*
X183745000Y-111300000D01*
X185825000Y-111300000D02*
X187321000Y-111300000D01*
X182257000Y-111260000D02*
X183745000Y-111260000D01*
X185825000Y-111260000D02*
X187313000Y-111260000D01*
X182265000Y-111220000D02*
X183745000Y-111220000D01*
X185825000Y-111220000D02*
X187305000Y-111220000D01*
X182274000Y-111180000D02*
X183745000Y-111180000D01*
X185825000Y-111180000D02*
X187296000Y-111180000D01*
X182284000Y-111140000D02*
X183745000Y-111140000D01*
X185825000Y-111140000D02*
X187286000Y-111140000D01*
X182294000Y-111100000D02*
X183745000Y-111100000D01*
X185825000Y-111100000D02*
X187276000Y-111100000D01*
X182305000Y-111059000D02*
X183745000Y-111059000D01*
X185825000Y-111059000D02*
X187265000Y-111059000D01*
X182317000Y-111019000D02*
X183745000Y-111019000D01*
X185825000Y-111019000D02*
X187253000Y-111019000D01*
X182330000Y-110979000D02*
X183745000Y-110979000D01*
X185825000Y-110979000D02*
X187240000Y-110979000D01*
X182343000Y-110939000D02*
X183745000Y-110939000D01*
X185825000Y-110939000D02*
X187227000Y-110939000D01*
X182357000Y-110899000D02*
X183745000Y-110899000D01*
X185825000Y-110899000D02*
X187213000Y-110899000D01*
X182371000Y-110859000D02*
X183745000Y-110859000D01*
X185825000Y-110859000D02*
X187199000Y-110859000D01*
X182387000Y-110819000D02*
X183745000Y-110819000D01*
X185825000Y-110819000D02*
X187183000Y-110819000D01*
X182403000Y-110779000D02*
X183745000Y-110779000D01*
X185825000Y-110779000D02*
X187167000Y-110779000D01*
X182420000Y-110739000D02*
X183745000Y-110739000D01*
X185825000Y-110739000D02*
X187150000Y-110739000D01*
X182437000Y-110699000D02*
X183745000Y-110699000D01*
X185825000Y-110699000D02*
X187133000Y-110699000D01*
X182456000Y-110659000D02*
X183745000Y-110659000D01*
X185825000Y-110659000D02*
X187114000Y-110659000D01*
X182475000Y-110619000D02*
X183745000Y-110619000D01*
X185825000Y-110619000D02*
X187095000Y-110619000D01*
X182495000Y-110579000D02*
X183745000Y-110579000D01*
X185825000Y-110579000D02*
X187075000Y-110579000D01*
X182517000Y-110539000D02*
X183745000Y-110539000D01*
X185825000Y-110539000D02*
X187053000Y-110539000D01*
X182538000Y-110499000D02*
X183745000Y-110499000D01*
X185825000Y-110499000D02*
X187032000Y-110499000D01*
X182561000Y-110459000D02*
X183745000Y-110459000D01*
X185825000Y-110459000D02*
X187009000Y-110459000D01*
X182585000Y-110419000D02*
X183745000Y-110419000D01*
X185825000Y-110419000D02*
X186985000Y-110419000D01*
X182610000Y-110379000D02*
X183745000Y-110379000D01*
X185825000Y-110379000D02*
X186960000Y-110379000D01*
X182636000Y-110339000D02*
X183745000Y-110339000D01*
X185825000Y-110339000D02*
X186934000Y-110339000D01*
X182663000Y-110299000D02*
X183745000Y-110299000D01*
X185825000Y-110299000D02*
X186907000Y-110299000D01*
X182690000Y-110259000D02*
X183745000Y-110259000D01*
X185825000Y-110259000D02*
X186880000Y-110259000D01*
X182720000Y-110219000D02*
X183745000Y-110219000D01*
X185825000Y-110219000D02*
X186850000Y-110219000D01*
X182750000Y-110179000D02*
X183745000Y-110179000D01*
X185825000Y-110179000D02*
X186820000Y-110179000D01*
X182781000Y-110139000D02*
X183745000Y-110139000D01*
X185825000Y-110139000D02*
X186789000Y-110139000D01*
X182814000Y-110099000D02*
X183745000Y-110099000D01*
X185825000Y-110099000D02*
X186756000Y-110099000D01*
X182848000Y-110059000D02*
X183745000Y-110059000D01*
X185825000Y-110059000D02*
X186722000Y-110059000D01*
X182884000Y-110019000D02*
X183745000Y-110019000D01*
X185825000Y-110019000D02*
X186686000Y-110019000D01*
X182921000Y-109979000D02*
X183745000Y-109979000D01*
X185825000Y-109979000D02*
X186649000Y-109979000D01*
X182959000Y-109939000D02*
X183745000Y-109939000D01*
X185825000Y-109939000D02*
X186611000Y-109939000D01*
X183000000Y-109899000D02*
X183745000Y-109899000D01*
X185825000Y-109899000D02*
X186570000Y-109899000D01*
X183042000Y-109859000D02*
X183745000Y-109859000D01*
X185825000Y-109859000D02*
X186528000Y-109859000D01*
X183086000Y-109819000D02*
X183745000Y-109819000D01*
X185825000Y-109819000D02*
X186484000Y-109819000D01*
X183132000Y-109779000D02*
X183745000Y-109779000D01*
X185825000Y-109779000D02*
X186438000Y-109779000D01*
X183180000Y-109739000D02*
X183745000Y-109739000D01*
X185825000Y-109739000D02*
X186390000Y-109739000D01*
X183231000Y-109699000D02*
X183745000Y-109699000D01*
X185825000Y-109699000D02*
X186339000Y-109699000D01*
X183285000Y-109659000D02*
X183745000Y-109659000D01*
X185825000Y-109659000D02*
X186285000Y-109659000D01*
X183342000Y-109619000D02*
X183745000Y-109619000D01*
X185825000Y-109619000D02*
X186228000Y-109619000D01*
X183402000Y-109579000D02*
X183745000Y-109579000D01*
X185825000Y-109579000D02*
X186168000Y-109579000D01*
X183466000Y-109539000D02*
X183745000Y-109539000D01*
X185825000Y-109539000D02*
X186104000Y-109539000D01*
X183534000Y-109499000D02*
X183745000Y-109499000D01*
X185825000Y-109499000D02*
X186036000Y-109499000D01*
X183607000Y-109459000D02*
X185963000Y-109459000D01*
X183687000Y-109419000D02*
X185883000Y-109419000D01*
X183774000Y-109379000D02*
X185796000Y-109379000D01*
X183870000Y-109339000D02*
X185700000Y-109339000D01*
X183980000Y-109299000D02*
X185590000Y-109299000D01*
X184108000Y-109259000D02*
X185462000Y-109259000D01*
X184267000Y-109219000D02*
X185303000Y-109219000D01*
X184501000Y-109179000D02*
X185069000Y-109179000D01*
X183310000Y-114584775D02*
X183310000Y-114084775D01*
X183060000Y-114334775D02*
X183560000Y-114334775D01*
G04 #@! TO.C,C7*
X200160000Y-45870000D02*
X196120000Y-45870000D01*
X200160000Y-43030000D02*
X196120000Y-43030000D01*
X200160000Y-45870000D02*
X200160000Y-45245000D01*
X200160000Y-43655000D02*
X200160000Y-43030000D01*
X196120000Y-45870000D02*
X196120000Y-45245000D01*
X196120000Y-43655000D02*
X196120000Y-43030000D01*
G04 #@! TO.C,C8*
X196120000Y-62705000D02*
X196120000Y-62080000D01*
X196120000Y-64920000D02*
X196120000Y-64295000D01*
X200160000Y-62705000D02*
X200160000Y-62080000D01*
X200160000Y-64920000D02*
X200160000Y-64295000D01*
X200160000Y-62080000D02*
X196120000Y-62080000D01*
X200160000Y-64920000D02*
X196120000Y-64920000D01*
G04 #@! TO.C,J1*
X208800000Y-35500000D02*
X208800000Y-36550000D01*
X209850000Y-36550000D02*
X208800000Y-36550000D01*
X214900000Y-27150000D02*
X223700000Y-27150000D01*
X223700000Y-27150000D02*
X223700000Y-36350000D01*
X209000000Y-29850000D02*
X209000000Y-27150000D01*
X209000000Y-27150000D02*
X210900000Y-27150000D01*
X223700000Y-36350000D02*
X209000000Y-36350000D01*
X209000000Y-36350000D02*
X209000000Y-33750000D01*
G04 #@! TO.C,J2*
X219175000Y-115005000D02*
X208695000Y-115005000D01*
X208695000Y-115005000D02*
X208695000Y-84035000D01*
X208695000Y-84035000D02*
X219175000Y-84035000D01*
X207800662Y-94230000D02*
X207800662Y-93730000D01*
X207800662Y-93730000D02*
X208233675Y-93980000D01*
X208233675Y-93980000D02*
X207800662Y-94230000D01*
G04 #@! TO.C,J5*
X174735000Y-101455000D02*
X174735000Y-95435000D01*
X174735000Y-95435000D02*
X164355000Y-95435000D01*
X164355000Y-95435000D02*
X164355000Y-101455000D01*
X164355000Y-101455000D02*
X174735000Y-101455000D01*
X175025000Y-100425000D02*
X175025000Y-96425000D01*
X173355000Y-95435000D02*
X173355000Y-96435000D01*
X173355000Y-96435000D02*
X165735000Y-96435000D01*
X165735000Y-96435000D02*
X165735000Y-95435000D01*
X173355000Y-96435000D02*
X173105000Y-96965000D01*
X173105000Y-96965000D02*
X165985000Y-96965000D01*
X165985000Y-96965000D02*
X165735000Y-96435000D01*
X173105000Y-95435000D02*
X173105000Y-96435000D01*
X165985000Y-95435000D02*
X165985000Y-96435000D01*
X174155000Y-101455000D02*
X174155000Y-100855000D01*
X174155000Y-100855000D02*
X172555000Y-100855000D01*
X172555000Y-100855000D02*
X172555000Y-101455000D01*
X171615000Y-101455000D02*
X171615000Y-100855000D01*
X171615000Y-100855000D02*
X170015000Y-100855000D01*
X170015000Y-100855000D02*
X170015000Y-101455000D01*
X169075000Y-101455000D02*
X169075000Y-100855000D01*
X169075000Y-100855000D02*
X167475000Y-100855000D01*
X167475000Y-100855000D02*
X167475000Y-101455000D01*
X166535000Y-101455000D02*
X166535000Y-100855000D01*
X166535000Y-100855000D02*
X164935000Y-100855000D01*
X164935000Y-100855000D02*
X164935000Y-101455000D01*
G04 #@! TO.C,U1*
X180975000Y-82550000D02*
X180975000Y-85090000D01*
X180975000Y-85090000D02*
X183645000Y-85090000D01*
X183645000Y-82550000D02*
X183645000Y-44320000D01*
X183645000Y-87760000D02*
X183645000Y-85090000D01*
X168275000Y-85090000D02*
X165605000Y-85090000D01*
X168275000Y-85090000D02*
X168275000Y-46990000D01*
X168275000Y-46990000D02*
X165605000Y-46990000D01*
X180975000Y-82550000D02*
X183645000Y-82550000D01*
X180975000Y-82550000D02*
X180975000Y-46990000D01*
X180975000Y-46990000D02*
X183645000Y-46990000D01*
X183645000Y-44320000D02*
X165605000Y-44320000D01*
X165605000Y-44320000D02*
X165605000Y-87760000D01*
X165605000Y-87760000D02*
X183645000Y-87760000D01*
G04 #@! TO.C,U3*
X201640000Y-47565000D02*
X200390000Y-47565000D01*
X201640000Y-57845000D02*
X201640000Y-47565000D01*
X197140000Y-57845000D02*
X201640000Y-57845000D01*
X197140000Y-47565000D02*
X197140000Y-57845000D01*
X198390000Y-47565000D02*
X197140000Y-47565000D01*
X200390000Y-47565000D02*
G75*
G02X198390000Y-47565000I-1000000J0D01*
G01*
G04 #@! TO.C,U4*
X200390000Y-66615000D02*
G75*
G02X198390000Y-66615000I-1000000J0D01*
G01*
X198390000Y-66615000D02*
X197140000Y-66615000D01*
X197140000Y-66615000D02*
X197140000Y-76895000D01*
X197140000Y-76895000D02*
X201640000Y-76895000D01*
X201640000Y-76895000D02*
X201640000Y-66615000D01*
X201640000Y-66615000D02*
X200390000Y-66615000D01*
G04 #@! TO.C,U5*
X198485000Y-90745000D02*
G75*
G02X196485000Y-90745000I-1000000J0D01*
G01*
X196485000Y-90745000D02*
X195235000Y-90745000D01*
X195235000Y-90745000D02*
X195235000Y-111185000D01*
X195235000Y-111185000D02*
X199735000Y-111185000D01*
X199735000Y-111185000D02*
X199735000Y-90745000D01*
X199735000Y-90745000D02*
X198485000Y-90745000D01*
G04 #@! TO.C,J3*
X219175000Y-79520000D02*
X208695000Y-79520000D01*
X208695000Y-79520000D02*
X208695000Y-40200000D01*
X208695000Y-40200000D02*
X219175000Y-40200000D01*
X207800662Y-50415000D02*
X207800662Y-49915000D01*
X207800662Y-49915000D02*
X208233675Y-50165000D01*
X208233675Y-50165000D02*
X207800662Y-50415000D01*
G04 #@! TO.C,J4*
X174735000Y-110345000D02*
X174735000Y-104325000D01*
X174735000Y-104325000D02*
X164355000Y-104325000D01*
X164355000Y-104325000D02*
X164355000Y-110345000D01*
X164355000Y-110345000D02*
X174735000Y-110345000D01*
X175025000Y-109315000D02*
X175025000Y-105315000D01*
X173355000Y-104325000D02*
X173355000Y-105325000D01*
X173355000Y-105325000D02*
X165735000Y-105325000D01*
X165735000Y-105325000D02*
X165735000Y-104325000D01*
X173355000Y-105325000D02*
X173105000Y-105855000D01*
X173105000Y-105855000D02*
X165985000Y-105855000D01*
X165985000Y-105855000D02*
X165735000Y-105325000D01*
X173105000Y-104325000D02*
X173105000Y-105325000D01*
X165985000Y-104325000D02*
X165985000Y-105325000D01*
X174155000Y-110345000D02*
X174155000Y-109745000D01*
X174155000Y-109745000D02*
X172555000Y-109745000D01*
X172555000Y-109745000D02*
X172555000Y-110345000D01*
X171615000Y-110345000D02*
X171615000Y-109745000D01*
X171615000Y-109745000D02*
X170015000Y-109745000D01*
X170015000Y-109745000D02*
X170015000Y-110345000D01*
X169075000Y-110345000D02*
X169075000Y-109745000D01*
X169075000Y-109745000D02*
X167475000Y-109745000D01*
X167475000Y-109745000D02*
X167475000Y-110345000D01*
X166535000Y-110345000D02*
X166535000Y-109745000D01*
X166535000Y-109745000D02*
X164935000Y-109745000D01*
X164935000Y-109745000D02*
X164935000Y-110345000D01*
G04 #@! TO.C,U2*
X179190000Y-36870000D02*
X179190000Y-26630000D01*
X163300000Y-36870000D02*
X163300000Y-26630000D01*
X163300000Y-36870000D02*
X179190000Y-36870000D01*
X163300000Y-26630000D02*
X179190000Y-26630000D01*
X179190000Y-34290000D02*
X181730000Y-34290000D01*
X179190000Y-31750000D02*
X181730000Y-31750000D01*
X179190000Y-29210000D02*
X181730000Y-29210000D01*
G04 #@! TO.C,J6*
X189290000Y-67370000D02*
X187960000Y-67370000D01*
X189290000Y-66040000D02*
X189290000Y-67370000D01*
X189290000Y-64770000D02*
X186630000Y-64770000D01*
X186630000Y-64770000D02*
X186630000Y-46930000D01*
X189290000Y-64770000D02*
X189290000Y-46930000D01*
X189290000Y-46930000D02*
X186630000Y-46930000D01*
G04 #@! TO.C,J7*
X163890000Y-46930000D02*
X161230000Y-46930000D01*
X163890000Y-64770000D02*
X163890000Y-46930000D01*
X161230000Y-64770000D02*
X161230000Y-46930000D01*
X163890000Y-64770000D02*
X161230000Y-64770000D01*
X163890000Y-66040000D02*
X163890000Y-67370000D01*
X163890000Y-67370000D02*
X162560000Y-67370000D01*
G04 #@! TO.C,D1*
D12*
X198651904Y-30932380D02*
X198651904Y-29932380D01*
X198890000Y-29932380D01*
X199032857Y-29980000D01*
X199128095Y-30075238D01*
X199175714Y-30170476D01*
X199223333Y-30360952D01*
X199223333Y-30503809D01*
X199175714Y-30694285D01*
X199128095Y-30789523D01*
X199032857Y-30884761D01*
X198890000Y-30932380D01*
X198651904Y-30932380D01*
X200175714Y-30932380D02*
X199604285Y-30932380D01*
X199890000Y-30932380D02*
X199890000Y-29932380D01*
X199794761Y-30075238D01*
X199699523Y-30170476D01*
X199604285Y-30218095D01*
X191508095Y-31707380D02*
X191508095Y-30707380D01*
X192079523Y-31707380D02*
X191650952Y-31135952D01*
X192079523Y-30707380D02*
X191508095Y-31278809D01*
G04 #@! TO.C,C1*
X188428333Y-35282142D02*
X188380714Y-35329761D01*
X188237857Y-35377380D01*
X188142619Y-35377380D01*
X187999761Y-35329761D01*
X187904523Y-35234523D01*
X187856904Y-35139285D01*
X187809285Y-34948809D01*
X187809285Y-34805952D01*
X187856904Y-34615476D01*
X187904523Y-34520238D01*
X187999761Y-34425000D01*
X188142619Y-34377380D01*
X188237857Y-34377380D01*
X188380714Y-34425000D01*
X188428333Y-34472619D01*
X189380714Y-35377380D02*
X188809285Y-35377380D01*
X189095000Y-35377380D02*
X189095000Y-34377380D01*
X188999761Y-34520238D01*
X188904523Y-34615476D01*
X188809285Y-34663095D01*
G04 #@! TO.C,C2*
X190333333Y-22582142D02*
X190285714Y-22629761D01*
X190142857Y-22677380D01*
X190047619Y-22677380D01*
X189904761Y-22629761D01*
X189809523Y-22534523D01*
X189761904Y-22439285D01*
X189714285Y-22248809D01*
X189714285Y-22105952D01*
X189761904Y-21915476D01*
X189809523Y-21820238D01*
X189904761Y-21725000D01*
X190047619Y-21677380D01*
X190142857Y-21677380D01*
X190285714Y-21725000D01*
X190333333Y-21772619D01*
X190714285Y-21772619D02*
X190761904Y-21725000D01*
X190857142Y-21677380D01*
X191095238Y-21677380D01*
X191190476Y-21725000D01*
X191238095Y-21772619D01*
X191285714Y-21867857D01*
X191285714Y-21963095D01*
X191238095Y-22105952D01*
X190666666Y-22677380D01*
X191285714Y-22677380D01*
G04 #@! TO.C,C3*
X180173333Y-98782142D02*
X180125714Y-98829761D01*
X179982857Y-98877380D01*
X179887619Y-98877380D01*
X179744761Y-98829761D01*
X179649523Y-98734523D01*
X179601904Y-98639285D01*
X179554285Y-98448809D01*
X179554285Y-98305952D01*
X179601904Y-98115476D01*
X179649523Y-98020238D01*
X179744761Y-97925000D01*
X179887619Y-97877380D01*
X179982857Y-97877380D01*
X180125714Y-97925000D01*
X180173333Y-97972619D01*
X180506666Y-97877380D02*
X181125714Y-97877380D01*
X180792380Y-98258333D01*
X180935238Y-98258333D01*
X181030476Y-98305952D01*
X181078095Y-98353571D01*
X181125714Y-98448809D01*
X181125714Y-98686904D01*
X181078095Y-98782142D01*
X181030476Y-98829761D01*
X180935238Y-98877380D01*
X180649523Y-98877380D01*
X180554285Y-98829761D01*
X180506666Y-98782142D01*
G04 #@! TO.C,C4*
X180173333Y-105132142D02*
X180125714Y-105179761D01*
X179982857Y-105227380D01*
X179887619Y-105227380D01*
X179744761Y-105179761D01*
X179649523Y-105084523D01*
X179601904Y-104989285D01*
X179554285Y-104798809D01*
X179554285Y-104655952D01*
X179601904Y-104465476D01*
X179649523Y-104370238D01*
X179744761Y-104275000D01*
X179887619Y-104227380D01*
X179982857Y-104227380D01*
X180125714Y-104275000D01*
X180173333Y-104322619D01*
X181030476Y-104560714D02*
X181030476Y-105227380D01*
X180792380Y-104179761D02*
X180554285Y-104894047D01*
X181173333Y-104894047D01*
G04 #@! TO.C,C5*
X180173333Y-91797142D02*
X180125714Y-91844761D01*
X179982857Y-91892380D01*
X179887619Y-91892380D01*
X179744761Y-91844761D01*
X179649523Y-91749523D01*
X179601904Y-91654285D01*
X179554285Y-91463809D01*
X179554285Y-91320952D01*
X179601904Y-91130476D01*
X179649523Y-91035238D01*
X179744761Y-90940000D01*
X179887619Y-90892380D01*
X179982857Y-90892380D01*
X180125714Y-90940000D01*
X180173333Y-90987619D01*
X181078095Y-90892380D02*
X180601904Y-90892380D01*
X180554285Y-91368571D01*
X180601904Y-91320952D01*
X180697142Y-91273333D01*
X180935238Y-91273333D01*
X181030476Y-91320952D01*
X181078095Y-91368571D01*
X181125714Y-91463809D01*
X181125714Y-91701904D01*
X181078095Y-91797142D01*
X181030476Y-91844761D01*
X180935238Y-91892380D01*
X180697142Y-91892380D01*
X180601904Y-91844761D01*
X180554285Y-91797142D01*
G04 #@! TO.C,C6*
X180173333Y-111482142D02*
X180125714Y-111529761D01*
X179982857Y-111577380D01*
X179887619Y-111577380D01*
X179744761Y-111529761D01*
X179649523Y-111434523D01*
X179601904Y-111339285D01*
X179554285Y-111148809D01*
X179554285Y-111005952D01*
X179601904Y-110815476D01*
X179649523Y-110720238D01*
X179744761Y-110625000D01*
X179887619Y-110577380D01*
X179982857Y-110577380D01*
X180125714Y-110625000D01*
X180173333Y-110672619D01*
X181030476Y-110577380D02*
X180840000Y-110577380D01*
X180744761Y-110625000D01*
X180697142Y-110672619D01*
X180601904Y-110815476D01*
X180554285Y-111005952D01*
X180554285Y-111386904D01*
X180601904Y-111482142D01*
X180649523Y-111529761D01*
X180744761Y-111577380D01*
X180935238Y-111577380D01*
X181030476Y-111529761D01*
X181078095Y-111482142D01*
X181125714Y-111386904D01*
X181125714Y-111148809D01*
X181078095Y-111053571D01*
X181030476Y-111005952D01*
X180935238Y-110958333D01*
X180744761Y-110958333D01*
X180649523Y-111005952D01*
X180601904Y-111053571D01*
X180554285Y-111148809D01*
G04 #@! TO.C,C7*
X194143333Y-44807142D02*
X194095714Y-44854761D01*
X193952857Y-44902380D01*
X193857619Y-44902380D01*
X193714761Y-44854761D01*
X193619523Y-44759523D01*
X193571904Y-44664285D01*
X193524285Y-44473809D01*
X193524285Y-44330952D01*
X193571904Y-44140476D01*
X193619523Y-44045238D01*
X193714761Y-43950000D01*
X193857619Y-43902380D01*
X193952857Y-43902380D01*
X194095714Y-43950000D01*
X194143333Y-43997619D01*
X194476666Y-43902380D02*
X195143333Y-43902380D01*
X194714761Y-44902380D01*
G04 #@! TO.C,C8*
X194143333Y-63857142D02*
X194095714Y-63904761D01*
X193952857Y-63952380D01*
X193857619Y-63952380D01*
X193714761Y-63904761D01*
X193619523Y-63809523D01*
X193571904Y-63714285D01*
X193524285Y-63523809D01*
X193524285Y-63380952D01*
X193571904Y-63190476D01*
X193619523Y-63095238D01*
X193714761Y-63000000D01*
X193857619Y-62952380D01*
X193952857Y-62952380D01*
X194095714Y-63000000D01*
X194143333Y-63047619D01*
X194714761Y-63380952D02*
X194619523Y-63333333D01*
X194571904Y-63285714D01*
X194524285Y-63190476D01*
X194524285Y-63142857D01*
X194571904Y-63047619D01*
X194619523Y-63000000D01*
X194714761Y-62952380D01*
X194905238Y-62952380D01*
X195000476Y-63000000D01*
X195048095Y-63047619D01*
X195095714Y-63142857D01*
X195095714Y-63190476D01*
X195048095Y-63285714D01*
X195000476Y-63333333D01*
X194905238Y-63380952D01*
X194714761Y-63380952D01*
X194619523Y-63428571D01*
X194571904Y-63476190D01*
X194524285Y-63571428D01*
X194524285Y-63761904D01*
X194571904Y-63857142D01*
X194619523Y-63904761D01*
X194714761Y-63952380D01*
X194905238Y-63952380D01*
X195000476Y-63904761D01*
X195048095Y-63857142D01*
X195095714Y-63761904D01*
X195095714Y-63571428D01*
X195048095Y-63476190D01*
X195000476Y-63428571D01*
X194905238Y-63380952D01*
G04 #@! TO.C,J1*
X207311666Y-26757380D02*
X207311666Y-27471666D01*
X207264047Y-27614523D01*
X207168809Y-27709761D01*
X207025952Y-27757380D01*
X206930714Y-27757380D01*
X208311666Y-27757380D02*
X207740238Y-27757380D01*
X208025952Y-27757380D02*
X208025952Y-26757380D01*
X207930714Y-26900238D01*
X207835476Y-26995476D01*
X207740238Y-27043095D01*
G04 #@! TO.C,J2*
X206676666Y-83907380D02*
X206676666Y-84621666D01*
X206629047Y-84764523D01*
X206533809Y-84859761D01*
X206390952Y-84907380D01*
X206295714Y-84907380D01*
X207105238Y-84002619D02*
X207152857Y-83955000D01*
X207248095Y-83907380D01*
X207486190Y-83907380D01*
X207581428Y-83955000D01*
X207629047Y-84002619D01*
X207676666Y-84097857D01*
X207676666Y-84193095D01*
X207629047Y-84335952D01*
X207057619Y-84907380D01*
X207676666Y-84907380D01*
G04 #@! TO.C,J5*
X162480666Y-95210380D02*
X162480666Y-95924666D01*
X162433047Y-96067523D01*
X162337809Y-96162761D01*
X162194952Y-96210380D01*
X162099714Y-96210380D01*
X163433047Y-95210380D02*
X162956857Y-95210380D01*
X162909238Y-95686571D01*
X162956857Y-95638952D01*
X163052095Y-95591333D01*
X163290190Y-95591333D01*
X163385428Y-95638952D01*
X163433047Y-95686571D01*
X163480666Y-95781809D01*
X163480666Y-96019904D01*
X163433047Y-96115142D01*
X163385428Y-96162761D01*
X163290190Y-96210380D01*
X163052095Y-96210380D01*
X162956857Y-96162761D01*
X162909238Y-96115142D01*
G04 #@! TO.C,U1*
X173863095Y-88352380D02*
X173863095Y-89161904D01*
X173910714Y-89257142D01*
X173958333Y-89304761D01*
X174053571Y-89352380D01*
X174244047Y-89352380D01*
X174339285Y-89304761D01*
X174386904Y-89257142D01*
X174434523Y-89161904D01*
X174434523Y-88352380D01*
X175434523Y-89352380D02*
X174863095Y-89352380D01*
X175148809Y-89352380D02*
X175148809Y-88352380D01*
X175053571Y-88495238D01*
X174958333Y-88590476D01*
X174863095Y-88638095D01*
G04 #@! TO.C,U3*
X203073095Y-45807380D02*
X203073095Y-46616904D01*
X203120714Y-46712142D01*
X203168333Y-46759761D01*
X203263571Y-46807380D01*
X203454047Y-46807380D01*
X203549285Y-46759761D01*
X203596904Y-46712142D01*
X203644523Y-46616904D01*
X203644523Y-45807380D01*
X204025476Y-45807380D02*
X204644523Y-45807380D01*
X204311190Y-46188333D01*
X204454047Y-46188333D01*
X204549285Y-46235952D01*
X204596904Y-46283571D01*
X204644523Y-46378809D01*
X204644523Y-46616904D01*
X204596904Y-46712142D01*
X204549285Y-46759761D01*
X204454047Y-46807380D01*
X204168333Y-46807380D01*
X204073095Y-46759761D01*
X204025476Y-46712142D01*
G04 #@! TO.C,U4*
X203073095Y-65067380D02*
X203073095Y-65876904D01*
X203120714Y-65972142D01*
X203168333Y-66019761D01*
X203263571Y-66067380D01*
X203454047Y-66067380D01*
X203549285Y-66019761D01*
X203596904Y-65972142D01*
X203644523Y-65876904D01*
X203644523Y-65067380D01*
X204549285Y-65400714D02*
X204549285Y-66067380D01*
X204311190Y-65019761D02*
X204073095Y-65734047D01*
X204692142Y-65734047D01*
G04 #@! TO.C,U5*
X200533095Y-88352380D02*
X200533095Y-89161904D01*
X200580714Y-89257142D01*
X200628333Y-89304761D01*
X200723571Y-89352380D01*
X200914047Y-89352380D01*
X201009285Y-89304761D01*
X201056904Y-89257142D01*
X201104523Y-89161904D01*
X201104523Y-88352380D01*
X202056904Y-88352380D02*
X201580714Y-88352380D01*
X201533095Y-88828571D01*
X201580714Y-88780952D01*
X201675952Y-88733333D01*
X201914047Y-88733333D01*
X202009285Y-88780952D01*
X202056904Y-88828571D01*
X202104523Y-88923809D01*
X202104523Y-89161904D01*
X202056904Y-89257142D01*
X202009285Y-89304761D01*
X201914047Y-89352380D01*
X201675952Y-89352380D01*
X201580714Y-89304761D01*
X201533095Y-89257142D01*
G04 #@! TO.C,J3*
X206676666Y-40092380D02*
X206676666Y-40806666D01*
X206629047Y-40949523D01*
X206533809Y-41044761D01*
X206390952Y-41092380D01*
X206295714Y-41092380D01*
X207057619Y-40092380D02*
X207676666Y-40092380D01*
X207343333Y-40473333D01*
X207486190Y-40473333D01*
X207581428Y-40520952D01*
X207629047Y-40568571D01*
X207676666Y-40663809D01*
X207676666Y-40901904D01*
X207629047Y-40997142D01*
X207581428Y-41044761D01*
X207486190Y-41092380D01*
X207200476Y-41092380D01*
X207105238Y-41044761D01*
X207057619Y-40997142D01*
G04 #@! TO.C,J4*
X162226666Y-103846380D02*
X162226666Y-104560666D01*
X162179047Y-104703523D01*
X162083809Y-104798761D01*
X161940952Y-104846380D01*
X161845714Y-104846380D01*
X163131428Y-104179714D02*
X163131428Y-104846380D01*
X162893333Y-103798761D02*
X162655238Y-104513047D01*
X163274285Y-104513047D01*
G04 #@! TO.C,U2*
X181483095Y-24217380D02*
X181483095Y-25026904D01*
X181530714Y-25122142D01*
X181578333Y-25169761D01*
X181673571Y-25217380D01*
X181864047Y-25217380D01*
X181959285Y-25169761D01*
X182006904Y-25122142D01*
X182054523Y-25026904D01*
X182054523Y-24217380D01*
X182483095Y-24312619D02*
X182530714Y-24265000D01*
X182625952Y-24217380D01*
X182864047Y-24217380D01*
X182959285Y-24265000D01*
X183006904Y-24312619D01*
X183054523Y-24407857D01*
X183054523Y-24503095D01*
X183006904Y-24645952D01*
X182435476Y-25217380D01*
X183054523Y-25217380D01*
G04 #@! TO.C,J6*
X187626666Y-68667380D02*
X187626666Y-69381666D01*
X187579047Y-69524523D01*
X187483809Y-69619761D01*
X187340952Y-69667380D01*
X187245714Y-69667380D01*
X188531428Y-68667380D02*
X188340952Y-68667380D01*
X188245714Y-68715000D01*
X188198095Y-68762619D01*
X188102857Y-68905476D01*
X188055238Y-69095952D01*
X188055238Y-69476904D01*
X188102857Y-69572142D01*
X188150476Y-69619761D01*
X188245714Y-69667380D01*
X188436190Y-69667380D01*
X188531428Y-69619761D01*
X188579047Y-69572142D01*
X188626666Y-69476904D01*
X188626666Y-69238809D01*
X188579047Y-69143571D01*
X188531428Y-69095952D01*
X188436190Y-69048333D01*
X188245714Y-69048333D01*
X188150476Y-69095952D01*
X188102857Y-69143571D01*
X188055238Y-69238809D01*
G04 #@! TO.C,J7*
X162226666Y-68667380D02*
X162226666Y-69381666D01*
X162179047Y-69524523D01*
X162083809Y-69619761D01*
X161940952Y-69667380D01*
X161845714Y-69667380D01*
X162607619Y-68667380D02*
X163274285Y-68667380D01*
X162845714Y-69667380D01*
G04 #@! TD*
M02*
